<?xml version="1.0" encoding="UTF-8"?>
<!DOCTYPE svg PUBLIC "-//W3C//DTD SVG 1.1//EN" "http://www.w3.org/Graphics/SVG/1.1/DTD/svg11.dtd">
<svg xmlns="http://www.w3.org/2000/svg" version="1.1" width="225px" height="225px" style="shape-rendering:geometricPrecision; text-rendering:geometricPrecision; image-rendering:optimizeQuality; fill-rule:evenodd; clip-rule:evenodd" xmlns:xlink="http://www.w3.org/1999/xlink">
<g><path style="opacity:0.118" fill="#c7d0e7" d="M 123.5,-0.5 C 125.167,-0.5 126.833,-0.5 128.5,-0.5C 130.167,0.166667 131.833,0.833333 133.5,1.5C 129.878,1.67802 126.544,1.01136 123.5,-0.5 Z"/></g>
<g><path style="opacity:0.722" fill="#888dc3" d="M 91.5,1.5 C 91.3893,2.11742 91.056,2.61742 90.5,3C 85.4601,3.67779 80.4601,4.51112 75.5,5.5C 80.4723,3.18468 85.8057,1.85135 91.5,1.5 Z"/></g>
<g><path style="opacity:0.71" fill="#868cc2" d="M 133.5,1.5 C 139.858,2.25345 145.858,3.92011 151.5,6.5C 146.793,5.99042 142.127,5.15708 137.5,4C 135.68,3.79959 134.347,2.96626 133.5,1.5 Z"/></g>
<g><path style="opacity:0.522" fill="#a0a5cd" d="M 75.5,5.5 C 73.3155,7.5848 70.6489,8.5848 67.5,8.5C 69.6845,6.4152 72.3511,5.4152 75.5,5.5 Z"/></g>
<g><path style="opacity:0.847" fill="#969ccc" d="M 154.5,7.5 C 157.485,8.32567 160.151,9.659 162.5,11.5C 158.966,11.6395 156.299,10.3061 154.5,7.5 Z"/></g>
<g><path style="opacity:0.004" fill="#fefffe" d="M 176.5,11.5 C 177.833,12.1667 177.833,12.1667 176.5,11.5 Z"/></g>
<g><path style="opacity:1" fill="#5c6bbf" d="M 95.5,-0.5 C 104.833,-0.5 114.167,-0.5 123.5,-0.5C 126.544,1.01136 129.878,1.67802 133.5,1.5C 134.347,2.96626 135.68,3.79959 137.5,4C 142.127,5.15708 146.793,5.99042 151.5,6.5C 152.609,6.55688 153.609,6.89022 154.5,7.5C 156.299,10.3061 158.966,11.6395 162.5,11.5C 162.833,11.5 163.167,11.5 163.5,11.5C 165.053,13.3134 166.72,15.1467 168.5,17C 171.929,18.4605 174.929,20.4605 177.5,23C 178.793,23.49 180.127,23.6567 181.5,23.5C 183.54,25.177 185.54,26.8437 187.5,28.5C 187.343,29.8734 187.51,31.2068 188,32.5C 189.579,31.828 190.746,32.4947 191.5,34.5C 191.631,35.3764 191.298,36.0431 190.5,36.5C 189.449,35.1152 188.116,34.1152 186.5,33.5C 186.083,28.3091 183.083,25.4757 177.5,25C 179.5,27 181.5,29 183.5,31C 180.14,30.515 176.806,29.6817 173.5,28.5C 173.5,30.1667 173.5,31.8333 173.5,33.5C 169.486,33.3345 165.486,33.5012 161.5,34C 158.965,34.9282 157.965,36.7615 158.5,39.5C 160.5,39.5 162.5,39.5 164.5,39.5C 164.408,35.9286 166.074,34.7619 169.5,36C 170.952,38.7447 172.952,41.0781 175.5,43C 171.271,43.3038 167.271,43.1371 163.5,42.5C 161.792,42.7028 160.459,43.5362 159.5,45C 163.651,44.4611 167.651,44.6278 171.5,45.5C 167.84,45.1588 164.507,45.8255 161.5,47.5C 158.351,47.4152 155.684,48.4152 153.5,50.5C 153.158,51.3382 152.492,51.6716 151.5,51.5C 148.979,51.4397 146.646,52.1064 144.5,53.5C 141.649,51.8583 140.983,52.525 142.5,55.5C 139.232,56.487 135.898,56.8204 132.5,56.5C 129.167,56.1667 125.833,55.8333 122.5,55.5C 113.676,54.3427 104.676,54.176 95.5,55C 93.9419,55.21 92.6085,55.71 91.5,56.5C 89.3621,57.4045 87.0288,58.0711 84.5,58.5C 83.5836,58.4573 82.9169,58.1239 82.5,57.5C 82.0269,56.0937 81.0269,55.427 79.5,55.5C 79.1667,54.8333 78.8333,54.1667 78.5,53.5C 74.2352,50.023 69.2352,48.023 63.5,47.5C 63.1667,47.5 62.8333,47.5 62.5,47.5C 62.3893,46.8826 62.056,46.3826 61.5,46C 58.5184,45.502 55.5184,45.3354 52.5,45.5C 51.8333,45.5 51.1667,45.5 50.5,45.5C 49.8007,47.556 48.8007,49.556 47.5,51.5C 46.4879,49.1631 46.6546,46.8297 48,44.5C 50.7825,42.407 53.9492,41.2403 57.5,41C 60.6655,36.323 59.3322,34.6563 53.5,36C 52.6634,37.0113 52.33,38.1779 52.5,39.5C 49.4532,38.8554 47.2865,39.8554 46,42.5C 44.117,41.3474 43.2837,39.6807 43.5,37.5C 47.2026,37.1376 50.2026,35.471 52.5,32.5C 50.4212,30.4098 48.0879,29.9098 45.5,31C 47.5593,29.8145 47.726,28.6479 46,27.5C 44.1052,28.6886 42.1052,29.6886 40,30.5C 39.6012,30.2716 39.4346,29.9382 39.5,29.5C 43.8844,25.1114 48.5511,21.1114 53.5,17.5C 55.3365,18.9333 57.3365,19.4333 59.5,19C 60.5505,17.6152 61.8839,16.6152 63.5,16C 61.1167,15.935 60.45,15.1017 61.5,13.5C 63.5707,11.8149 65.5707,10.1482 67.5,8.5C 70.6489,8.5848 73.3155,7.5848 75.5,5.5C 80.4601,4.51112 85.4601,3.67779 90.5,3C 91.056,2.61742 91.3893,2.11742 91.5,1.5C 92.8333,0.833333 94.1667,0.166667 95.5,-0.5 Z"/></g>
<g><path style="opacity:0.004" fill="#fefffe" d="M 20.5,13.5 C 21.8333,14.1667 21.8333,14.1667 20.5,13.5 Z"/></g>
<g><path style="opacity:0.004" fill="#fefffe" d="M -0.5,14.5 C 0.833333,15.1667 0.833333,15.1667 -0.5,14.5 Z"/></g>
<g><path style="opacity:0.341" fill="#9fa3c9" d="M 57.5,13.5 C 56.5144,15.4077 54.8477,16.4077 52.5,16.5C 53.6594,14.7497 55.326,13.7497 57.5,13.5 Z"/></g>
<g><path style="opacity:1" fill="#6d76b8" d="M 67.5,8.5 C 65.5707,10.1482 63.5707,11.8149 61.5,13.5C 60.45,15.1017 61.1167,15.935 63.5,16C 61.8839,16.6152 60.5505,17.6152 59.5,19C 57.3365,19.4333 55.3365,18.9333 53.5,17.5C 48.5511,21.1114 43.8844,25.1114 39.5,29.5C 38.8333,29.5 38.1667,29.5 37.5,29.5C 38.5,28.1667 39.5,26.8333 40.5,25.5C 43.9289,21.7376 47.9289,18.7376 52.5,16.5C 54.8477,16.4077 56.5144,15.4077 57.5,13.5C 60.2353,10.7989 63.5686,9.13224 67.5,8.5 Z"/></g>
<g><path style="opacity:0.894" fill="#7c85bd" d="M 163.5,11.5 C 170.225,14.521 176.225,18.521 181.5,23.5C 180.127,23.6567 178.793,23.49 177.5,23C 174.929,20.4605 171.929,18.4605 168.5,17C 166.72,15.1467 165.053,13.3134 163.5,11.5 Z"/></g>
<g><path style="opacity:0.004" fill="#fefffe" d="M 209.5,18.5 C 210.833,19.1667 210.833,19.1667 209.5,18.5 Z"/></g>
<g><path style="opacity:0.412" fill="#8e99c6" d="M 40.5,25.5 C 39.5,26.8333 38.5,28.1667 37.5,29.5C 36.8333,29.5 36.1667,29.5 35.5,29.5C 36.5846,27.4131 38.2512,26.0798 40.5,25.5 Z"/></g>
<g><path style="opacity:1" fill="#5c6bbf" d="M 50.5,45.5 C 48.322,54.7207 47.9886,64.054 49.5,73.5C 48.233,76.3773 47.233,79.3773 46.5,82.5C 44.8008,82.3398 43.1341,82.5065 41.5,83C 42.428,83.3879 43.0946,84.0546 43.5,85C 41.861,88.3023 41.1944,91.8023 41.5,95.5C 39.5721,100.767 39.2388,106.1 40.5,111.5C 41.4137,114.728 41.7471,118.061 41.5,121.5C 41.7811,125.188 42.2811,128.855 43,132.5C 43.7083,133.381 44.5416,134.047 45.5,134.5C 45.7852,136.288 45.4519,137.955 44.5,139.5C 43.8524,137.851 42.8524,136.518 41.5,135.5C 40.6136,138.116 41.2802,140.449 43.5,142.5C 44.1667,141.833 44.8333,141.167 45.5,140.5C 48.4123,143.245 50.7456,146.411 52.5,150C 58.9494,154.244 65.7827,157.744 73,160.5C 74.0113,159.663 75.1779,159.33 76.5,159.5C 80.1629,161.416 84.1629,162.416 88.5,162.5C 87.551,164.737 86.8844,167.071 86.5,169.5C 84.5433,172.178 82.8766,175.178 81.5,178.5C 75.2859,178.772 69.1192,178.438 63,177.5C 61.8315,176.991 60.9981,176.158 60.5,175C 64.4841,172.126 64.1508,169.96 59.5,168.5C 59.5,169.5 59.5,170.5 59.5,171.5C 57.0712,171.415 55.0712,170.415 53.5,168.5C 52.6893,165.448 52.6893,162.615 53.5,160C 51.6891,160.707 49.6891,161.207 47.5,161.5C 46.3951,160.4 45.0618,159.733 43.5,159.5C 41.597,159.204 39.9303,158.537 38.5,157.5C 36.7354,156.539 34.7354,156.205 32.5,156.5C 27.1469,155.431 26.1469,157.431 29.5,162.5C 30.325,163.386 31.325,163.719 32.5,163.5C 31.7691,165.599 31.7691,167.599 32.5,169.5C 33.6956,169.154 33.6956,168.654 32.5,168C 35.41,167.363 38.0767,167.863 40.5,169.5C 40.427,171.027 41.0937,172.027 42.5,172.5C 42.427,174.027 43.0937,175.027 44.5,175.5C 43.925,179.155 44.925,182.155 47.5,184.5C 48.1667,184.833 48.8333,185.167 49.5,185.5C 49.5,186.167 49.5,186.833 49.5,187.5C 48.341,191.7 46.6743,195.033 44.5,197.5C 45.325,198.386 46.325,198.719 47.5,198.5C 49.4007,201.328 48.734,202.994 45.5,203.5C 44.7377,201.738 43.4044,200.738 41.5,200.5C 40.4274,197.764 38.4274,196.097 35.5,195.5C 34.7834,192.677 33.7834,190.01 32.5,187.5C 30.4352,187.483 28.4352,187.15 26.5,186.5C 26.5,186.167 26.5,185.833 26.5,185.5C 24.6,182.707 22.9333,179.707 21.5,176.5C 20.5832,175.873 19.5832,175.539 18.5,175.5C 16.336,173.178 14.6693,170.511 13.5,167.5C 13.4142,166.504 13.7476,165.671 14.5,165C 13.1666,162.809 11.5,160.976 9.5,159.5C 9.28649,157.856 9.61983,156.356 10.5,155C 8.2511,152.994 7.58444,150.66 8.5,148C 7.28105,145.945 5.61439,144.445 3.5,143.5C 3.5,142.833 3.5,142.167 3.5,141.5C 3.36989,137.475 2.36989,133.809 0.5,130.5C 0.767809,128.901 0.434475,127.568 -0.5,126.5C -0.5,120.167 -0.5,113.833 -0.5,107.5C 2.26381,99.5322 3.59714,91.1989 3.5,82.5C 5.41104,78.767 6.74437,74.767 7.5,70.5C 9.45956,63.9142 12.4596,57.9142 16.5,52.5C 17.9063,52.0269 18.573,51.0269 18.5,49.5C 22.7135,47.9542 25.0468,44.9542 25.5,40.5C 27.914,39.0892 29.5806,37.0892 30.5,34.5C 31.8333,32.5 33.5,30.8333 35.5,29.5C 36.1667,29.5 36.8333,29.5 37.5,29.5C 38.1667,29.5 38.8333,29.5 39.5,29.5C 39.4346,29.9382 39.6012,30.2716 40,30.5C 42.1052,29.6886 44.1052,28.6886 46,27.5C 47.726,28.6479 47.5593,29.8145 45.5,31C 48.0879,29.9098 50.4212,30.4098 52.5,32.5C 50.2026,35.471 47.2026,37.1376 43.5,37.5C 43.2837,39.6807 44.117,41.3474 46,42.5C 47.2865,39.8554 49.4532,38.8554 52.5,39.5C 52.33,38.1779 52.6634,37.0113 53.5,36C 59.3322,34.6563 60.6655,36.323 57.5,41C 53.9492,41.2403 50.7825,42.407 48,44.5C 46.6546,46.8297 46.4879,49.1631 47.5,51.5C 48.8007,49.556 49.8007,47.556 50.5,45.5 Z"/></g>
<g><path style="opacity:1" fill="#5d6bbf" d="M 191.5,34.5 C 194.167,36.8333 196.833,39.1667 199.5,41.5C 199.62,45.6147 201.62,48.2814 205.5,49.5C 204.916,52.285 205.916,53.9517 208.5,54.5C 210.588,56.3356 211.921,58.6689 212.5,61.5C 212.756,63.7925 212.423,65.9592 211.5,68C 212.253,69.487 213.086,69.6537 214,68.5C 215.5,71.5 217,74.5 218.5,77.5C 218.167,78.1667 217.833,78.8333 217.5,79.5C 217.846,80.6956 218.346,80.6956 219,79.5C 219.232,80.7375 219.732,81.7375 220.5,82.5C 219.966,87.3604 220.966,91.6937 223.5,95.5C 223.5,96.1667 223.833,96.5 224.5,96.5C 224.5,106.833 224.5,117.167 224.5,127.5C 223.745,130.053 223.078,132.72 222.5,135.5C 221.883,135.611 221.383,135.944 221,136.5C 220.505,138.473 220.338,140.473 220.5,142.5C 219.668,148.666 217.668,154.333 214.5,159.5C 211.645,161.281 210.312,163.948 210.5,167.5C 209.279,168.028 208.113,168.695 207,169.5C 204.894,172.372 203.061,176.038 201.5,180.5C 200.5,180.5 199.5,180.5 198.5,180.5C 198.5,181.833 198.5,183.167 198.5,184.5C 196.857,184.48 195.524,185.147 194.5,186.5C 193.914,186.291 193.414,185.957 193,185.5C 191.249,187.49 190.249,189.823 190,192.5C 188.187,191.391 187.354,192.058 187.5,194.5C 184.882,194.779 182.382,195.446 180,196.5C 180.135,198.425 180.302,200.425 180.5,202.5C 180.158,203.338 179.492,203.672 178.5,203.5C 175.833,203.5 173.167,203.5 170.5,203.5C 170.5,205.167 170.5,206.833 170.5,208.5C 168.5,208.5 166.5,208.5 164.5,208.5C 164.5,209.833 164.5,211.167 164.5,212.5C 158.379,212.167 154.379,212.834 152.5,214.5C 152.5,215.5 152.5,216.5 152.5,217.5C 150.517,217.157 149.183,217.824 148.5,219.5C 146.716,220.72 145.05,220.72 143.5,219.5C 142.496,218.317 141.662,216.984 141,215.5C 140.831,202.66 140.331,189.993 139.5,177.5C 139.5,177.167 139.5,176.833 139.5,176.5C 139.475,173.04 138.808,169.706 137.5,166.5C 136.735,165.388 135.735,164.721 134.5,164.5C 135.058,163.21 136.058,162.377 137.5,162C 140.851,161.943 143.851,161.109 146.5,159.5C 146.833,159.5 147.167,159.5 147.5,159.5C 150.716,159.655 153.383,158.655 155.5,156.5C 156.391,155.89 157.391,155.557 158.5,155.5C 161.253,154.978 163.92,154.144 166.5,153C 167.745,150.343 169.745,148.51 172.5,147.5C 173.429,146.311 173.762,144.978 173.5,143.5C 174.906,143.027 175.573,142.027 175.5,140.5C 177.533,138.837 179.366,136.837 181,134.5C 183.96,125.447 185.46,116.113 185.5,106.5C 185.353,102.604 184.686,98.9377 183.5,95.5C 183.104,91.2723 181.937,87.2723 180,83.5C 178.27,81.9236 176.437,80.5903 174.5,79.5C 173.701,76.5701 173.368,73.5701 173.5,70.5C 173.805,62.7299 173.138,55.0632 171.5,47.5C 171.5,46.8333 171.5,46.1667 171.5,45.5C 167.651,44.6278 163.651,44.4611 159.5,45C 160.459,43.5362 161.792,42.7028 163.5,42.5C 167.271,43.1371 171.271,43.3038 175.5,43C 172.952,41.0781 170.952,38.7447 169.5,36C 166.074,34.7619 164.408,35.9286 164.5,39.5C 162.5,39.5 160.5,39.5 158.5,39.5C 157.965,36.7615 158.965,34.9282 161.5,34C 165.486,33.5012 169.486,33.3345 173.5,33.5C 173.5,31.8333 173.5,30.1667 173.5,28.5C 176.806,29.6817 180.14,30.515 183.5,31C 181.5,29 179.5,27 177.5,25C 183.083,25.4757 186.083,28.3091 186.5,33.5C 188.116,34.1152 189.449,35.1152 190.5,36.5C 191.298,36.0431 191.631,35.3764 191.5,34.5 Z"/></g>
<g><path style="opacity:0.914" fill="#9498cb" d="M 187.5,28.5 C 192.23,32.2269 196.23,36.5603 199.5,41.5C 196.833,39.1667 194.167,36.8333 191.5,34.5C 190.746,32.4947 189.579,31.828 188,32.5C 187.51,31.2068 187.343,29.8734 187.5,28.5 Z"/></g>
<g><path style="opacity:0.004" fill="#fefffe" d="M 200.5,32.5 C 201.833,33.1667 201.833,33.1667 200.5,32.5 Z"/></g>
<g><path style="opacity:0.255" fill="#9fa5d1" d="M 30.5,34.5 C 29.5806,37.0892 27.914,39.0892 25.5,40.5C 26.4194,37.9108 28.086,35.9108 30.5,34.5 Z"/></g>
<g><path style="opacity:0.004" fill="#fefffe" d="M 215.5,43.5 C 216.833,44.1667 216.833,44.1667 215.5,43.5 Z"/></g>
<g><path style="opacity:0.62" fill="#8c95c2" d="M 52.5,45.5 C 55.5184,45.3354 58.5184,45.502 61.5,46C 62.056,46.3826 62.3893,46.8826 62.5,47.5C 59.0983,46.5398 55.765,46.5398 52.5,47.5C 52.5,46.8333 52.5,46.1667 52.5,45.5 Z"/></g>
<g><path style="opacity:0.188" fill="#abb2d6" d="M 171.5,45.5 C 171.5,46.1667 171.5,46.8333 171.5,47.5C 168.235,46.5398 164.902,46.5398 161.5,47.5C 164.507,45.8255 167.84,45.1588 171.5,45.5 Z"/></g>
<g><path style="opacity:0.835" fill="#7c85bc" d="M 199.5,41.5 C 201.984,43.8003 203.984,46.4669 205.5,49.5C 201.62,48.2814 199.62,45.6147 199.5,41.5 Z"/></g>
<g><path style="opacity:0.004" fill="#fefffe" d="M 221.5,45.5 C 222.833,46.1667 222.833,46.1667 221.5,45.5 Z"/></g>
<g><path style="opacity:0.855" fill="#7b83b9" d="M 25.5,40.5 C 25.0468,44.9542 22.7135,47.9542 18.5,49.5C 19.6936,45.6367 22.027,42.6367 25.5,40.5 Z"/></g>
<g><path style="opacity:0.133" fill="#ced2ee" d="M 161.5,47.5 C 159.11,49.0198 156.443,50.0198 153.5,50.5C 155.684,48.4152 158.351,47.4152 161.5,47.5 Z"/></g>
<g><path style="opacity:0.929" fill="#8c93c7" d="M 63.5,47.5 C 69.2352,48.023 74.2352,50.023 78.5,53.5C 77.8333,53.5 77.1667,53.5 76.5,53.5C 71.978,51.7365 67.6446,49.7365 63.5,47.5 Z"/></g>
<g><path style="opacity:0.216" fill="#b7bbe4" d="M 18.5,49.5 C 18.573,51.0269 17.9063,52.0269 16.5,52.5C 16.427,50.9731 17.0937,49.9731 18.5,49.5 Z"/></g>
<g><path style="opacity:0.991" fill="#9ba2cf" d="M 151.5,51.5 C 148.342,53.8036 145.009,55.9703 141.5,58C 138.28,58.3202 135.28,57.8202 132.5,56.5C 135.898,56.8204 139.232,56.487 142.5,55.5C 140.983,52.525 141.649,51.8583 144.5,53.5C 146.646,52.1064 148.979,51.4397 151.5,51.5 Z"/></g>
<g><path style="opacity:0.843" fill="#868cc0" d="M 205.5,49.5 C 207.25,50.6594 208.25,52.326 208.5,54.5C 205.916,53.9517 204.916,52.285 205.5,49.5 Z"/></g>
<g><path style="opacity:0.169" fill="#ccd3ec" d="M 76.5,53.5 C 77.1667,53.5 77.8333,53.5 78.5,53.5C 78.8333,54.1667 79.1667,54.8333 79.5,55.5C 77.9731,55.573 76.9731,54.9063 76.5,53.5 Z"/></g>
<g><path style="opacity:0.026" fill="#ecf0fc" d="M 122.5,55.5 C 112.14,55.296 101.806,55.6293 91.5,56.5C 92.6085,55.71 93.9419,55.21 95.5,55C 104.676,54.176 113.676,54.3427 122.5,55.5 Z"/></g>
<g><path style="opacity:0.141" fill="#d1d6ef" d="M 79.5,55.5 C 81.0269,55.427 82.0269,56.0937 82.5,57.5C 80.9731,57.573 79.9731,56.9063 79.5,55.5 Z"/></g>
<g><path style="opacity:0.004" fill="#fefffe" d="M 83.5,59.5 C 84.8333,60.1667 84.8333,60.1667 83.5,59.5 Z"/></g>
<g><path style="opacity:0.004" fill="#fefffe" d="M 170.5,61.5 C 171.833,62.1667 171.833,62.1667 170.5,61.5 Z"/></g>
<g><path style="opacity:1" fill="#7d85c2" d="M 212.5,61.5 C 213.674,62.5137 214.34,63.847 214.5,65.5C 214.427,67.0269 215.094,68.0269 216.5,68.5C 218.44,72.9872 219.773,77.6539 220.5,82.5C 219.732,81.7375 219.232,80.7375 219,79.5C 218.346,80.6956 217.846,80.6956 217.5,79.5C 217.833,78.8333 218.167,78.1667 218.5,77.5C 217,74.5 215.5,71.5 214,68.5C 213.086,69.6537 212.253,69.487 211.5,68C 212.423,65.9592 212.756,63.7925 212.5,61.5 Z"/></g>
<g><path style="opacity:0.031" fill="#daeff8" d="M 214.5,65.5 C 215.906,65.9731 216.573,66.9731 216.5,68.5C 215.094,68.0269 214.427,67.0269 214.5,65.5 Z"/></g>
<g><path style="opacity:0.004" fill="#fefffe" d="M 77.5,69.5 C 78.8333,70.1667 78.8333,70.1667 77.5,69.5 Z"/></g>
<g><path style="opacity:0.004" fill="#fefffe" d="M 152.5,70.5 C 153.833,71.1667 153.833,71.1667 152.5,70.5 Z"/></g>
<g><path style="opacity:0.627" fill="#9ea2cc" d="M 7.5,70.5 C 6.74437,74.767 5.41104,78.767 3.5,82.5C 3.8606,78.0845 5.19393,74.0845 7.5,70.5 Z"/></g>
<g><path style="opacity:0.847" fill="#878dc3" d="M 50.5,45.5 C 51.1667,45.5 51.8333,45.5 52.5,45.5C 52.5,46.1667 52.5,46.8333 52.5,47.5C 50.8393,55.3985 50.1726,63.3985 50.5,71.5C 50.5,73.8333 50.5,76.1667 50.5,78.5C 46.6897,83.7896 43.6897,89.4562 41.5,95.5C 41.1944,91.8023 41.861,88.3023 43.5,85C 43.0946,84.0546 42.428,83.3879 41.5,83C 43.1341,82.5065 44.8008,82.3398 46.5,82.5C 47.233,79.3773 48.233,76.3773 49.5,73.5C 47.9886,64.054 48.322,54.7207 50.5,45.5 Z"/></g>
<g><path style="opacity:0.424" fill="#b6b6d6" d="M 50.5,71.5 C 52.8907,73.9024 52.8907,76.2358 50.5,78.5C 50.5,76.1667 50.5,73.8333 50.5,71.5 Z"/></g>
<g><path style="opacity:0.522" fill="#b1b7d1" d="M 173.5,70.5 C 173.368,73.5701 173.701,76.5701 174.5,79.5C 172.978,78.8091 171.978,77.6424 171.5,76C 171.954,73.9701 172.62,72.1368 173.5,70.5 Z"/></g>
<g><path style="opacity:0.004" fill="#fefffe" d="M 83.5,78.5 C 84.8333,79.1667 84.8333,79.1667 83.5,78.5 Z"/></g>
<g><path style="opacity:0.004" fill="#fefffe" d="M 101.5,78.5 C 102.833,79.1667 102.833,79.1667 101.5,78.5 Z"/></g>
<g><path style="opacity:0.004" fill="#fefffe" d="M 74.5,85.5 C 75.8333,86.1667 75.8333,86.1667 74.5,85.5 Z"/></g>
<g><path style="opacity:0.784" fill="#8b92c5" d="M 220.5,82.5 C 222.26,86.5465 223.26,90.8799 223.5,95.5C 220.966,91.6937 219.966,87.3604 220.5,82.5 Z"/></g>
<g><path style="opacity:0.004" fill="#fefffe" d="M 134.5,92.5 C 135.833,93.1667 135.833,93.1667 134.5,92.5 Z"/></g>
<g><path style="opacity:0.706" fill="#8b8ec3" d="M 174.5,79.5 C 176.437,80.5903 178.27,81.9236 180,83.5C 181.937,87.2723 183.104,91.2723 183.5,95.5C 183.5,97.8333 183.5,100.167 183.5,102.5C 182.485,94.1243 179.485,86.4576 174.5,79.5 Z"/></g>
<g><path style="opacity:0.776" fill="#757dbc" d="M 3.5,82.5 C 3.59714,91.1989 2.26381,99.5322 -0.5,107.5C -0.5,104.167 -0.5,100.833 -0.5,97.5C 0.579117,92.4402 1.91245,87.4402 3.5,82.5 Z"/></g>
<g><path style="opacity:0.004" fill="#fefffe" d="M 161.5,95.5 C 162.833,96.1667 162.833,96.1667 161.5,95.5 Z"/></g>
<g><path style="opacity:0.004" fill="#fefffe" d="M 152.5,96.5 C 153.833,97.1667 153.833,97.1667 152.5,96.5 Z"/></g>
<g><path style="opacity:0.004" fill="#fefffe" d="M 119.5,101.5 C 120.833,102.167 120.833,102.167 119.5,101.5 Z"/></g>
<g><path style="opacity:0.251" fill="#989ccb" d="M 41.5,95.5 C 41.0199,100.822 40.6865,106.155 40.5,111.5C 39.2388,106.1 39.5721,100.767 41.5,95.5 Z"/></g>
<g><path style="opacity:0.004" fill="#fefffe" d="M 44.5,113.5 C 45.8333,114.167 45.8333,114.167 44.5,113.5 Z"/></g>
<g><path style="opacity:0.004" fill="#fefffe" d="M 170.5,117.5 C 171.833,118.167 171.833,118.167 170.5,117.5 Z"/></g>
<g><path style="opacity:0.004" fill="#fefffe" d="M 77.5,119.5 C 78.8333,120.167 78.8333,120.167 77.5,119.5 Z"/></g>
<g><path style="opacity:0.868" fill="#767ebe" d="M 183.5,95.5 C 184.686,98.9377 185.353,102.604 185.5,106.5C 185.46,116.113 183.96,125.447 181,134.5C 179.366,136.837 177.533,138.837 175.5,140.5C 181.357,128.552 184.023,115.885 183.5,102.5C 183.5,100.167 183.5,97.8333 183.5,95.5 Z"/></g>
<g><path style="opacity:0.004" fill="#fefffe" d="M 146.5,124.5 C 147.833,125.167 147.833,125.167 146.5,124.5 Z"/></g>
<g><path style="opacity:0.004" fill="#fefffe" d="M 164.5,124.5 C 165.833,125.167 165.833,125.167 164.5,124.5 Z"/></g>
<g><path style="opacity:0.004" fill="#fefffe" d="M 92.5,127.5 C 93.8333,128.167 93.8333,128.167 92.5,127.5 Z"/></g>
<g><path style="opacity:0.518" fill="#9196c2" d="M 41.5,121.5 C 42.969,125.687 44.3023,130.02 45.5,134.5C 44.5416,134.047 43.7083,133.381 43,132.5C 42.2811,128.855 41.7811,125.188 41.5,121.5 Z"/></g>
<g><path style="opacity:0.004" fill="#fefffe" d="M 113.5,132.5 C 114.833,133.167 114.833,133.167 113.5,132.5 Z"/></g>
<g><path style="opacity:0.31" fill="#a0a3ce" d="M 0.5,130.5 C 2.36989,133.809 3.36989,137.475 3.5,141.5C 1.88163,138.112 0.881634,134.446 0.5,130.5 Z"/></g>
<g><path style="opacity:1" fill="#7780c0" d="M 45.5,134.5 C 49.5381,142.709 55.5381,149.209 63.5,154C 67.8931,155.956 72.2265,157.789 76.5,159.5C 75.1779,159.33 74.0113,159.663 73,160.5C 65.7827,157.744 58.9494,154.244 52.5,150C 50.7456,146.411 48.4123,143.245 45.5,140.5C 44.8333,141.167 44.1667,141.833 43.5,142.5C 41.2802,140.449 40.6136,138.116 41.5,135.5C 42.8524,136.518 43.8524,137.851 44.5,139.5C 45.4519,137.955 45.7852,136.288 45.5,134.5 Z"/></g>
<g><path style="opacity:0.486" fill="#9b9fcf" d="M 222.5,135.5 C 222.279,138.067 221.612,140.401 220.5,142.5C 220.338,140.473 220.505,138.473 221,136.5C 221.383,135.944 221.883,135.611 222.5,135.5 Z"/></g>
<g><path style="opacity:0.161" fill="#acb6d3" d="M 175.5,140.5 C 175.573,142.027 174.906,143.027 173.5,143.5C 173.427,141.973 174.094,140.973 175.5,140.5 Z"/></g>
<g><path style="opacity:0.004" fill="#fefffe" d="M 107.5,145.5 C 108.833,146.167 108.833,146.167 107.5,145.5 Z"/></g>
<g><path style="opacity:1" fill="#8086c5" d="M 3.5,143.5 C 5.61439,144.445 7.28105,145.945 8.5,148C 7.58444,150.66 8.2511,152.994 10.5,155C 9.61983,156.356 9.28649,157.856 9.5,159.5C 6.92924,154.464 4.92924,149.13 3.5,143.5 Z"/></g>
<g><path style="opacity:0.004" fill="#fefffe" d="M 56.5,146.5 C 57.8333,147.167 57.8333,147.167 56.5,146.5 Z"/></g>
<g><path style="opacity:0.839" fill="#7a84bd" d="M 173.5,143.5 C 173.762,144.978 173.429,146.311 172.5,147.5C 169.745,148.51 167.745,150.343 166.5,153C 163.92,154.144 161.253,154.978 158.5,155.5C 164.008,152.232 169.008,148.232 173.5,143.5 Z"/></g>
<g><path style="opacity:0.004" fill="#fefffe" d="M 119.5,155.5 C 120.833,156.167 120.833,156.167 119.5,155.5 Z"/></g>
<g><path style="opacity:0.059" fill="#d9ddf5" d="M 32.5,156.5 C 34.7354,156.205 36.7354,156.539 38.5,157.5C 35.3019,156.964 32.6353,157.631 30.5,159.5C 29.596,158.791 29.2627,157.791 29.5,156.5C 30.5,156.5 31.5,156.5 32.5,156.5 Z"/></g>
<g><path style="opacity:0.004" fill="#fefffe" d="M 119.5,158.5 C 120.833,159.167 120.833,159.167 119.5,158.5 Z"/></g>
<g><path style="opacity:0.373" fill="#9d9fcb" d="M 155.5,156.5 C 153.383,158.655 150.716,159.655 147.5,159.5C 149.936,158.129 152.603,157.129 155.5,156.5 Z"/></g>
<g><path style="opacity:0.408" fill="#adb3d6" d="M 43.5,159.5 C 45.0618,159.733 46.3951,160.4 47.5,161.5C 48.1098,162.391 48.4431,163.391 48.5,164.5C 46.5,163.167 44.8333,161.5 43.5,159.5 Z"/></g>
<g><path style="opacity:0.843" fill="#9097ce" d="M 9.5,159.5 C 11.5,160.976 13.1666,162.809 14.5,165C 13.7476,165.671 13.4142,166.504 13.5,167.5C 11.659,165.151 10.3257,162.485 9.5,159.5 Z"/></g>
<g><path style="opacity:0.537" fill="#a1a7d0" d="M 146.5,159.5 C 143.851,161.109 140.851,161.943 137.5,162C 136.058,162.377 135.058,163.21 134.5,164.5C 133.596,163.791 133.263,162.791 133.5,161.5C 137.814,160.725 142.147,160.059 146.5,159.5 Z"/></g>
<g><path style="opacity:0.533" fill="#9fa4cf" d="M 76.5,159.5 C 81.7845,159.702 86.7845,160.869 91.5,163C 89.9343,165.326 88.2676,167.492 86.5,169.5C 86.8844,167.071 87.551,164.737 88.5,162.5C 84.1629,162.416 80.1629,161.416 76.5,159.5 Z"/></g>
<g><path style="opacity:0.655" fill="#919aca" d="M 214.5,159.5 C 213.674,162.485 212.341,165.151 210.5,167.5C 210.312,163.948 211.645,161.281 214.5,159.5 Z"/></g>
<g><path style="opacity:0.859" fill="#929acd" d="M 134.5,164.5 C 135.735,164.721 136.735,165.388 137.5,166.5C 138.808,169.706 139.475,173.04 139.5,176.5C 138.245,172.421 136.578,168.421 134.5,164.5 Z"/></g>
<g><path style="opacity:1" fill="#6e79bd" d="M 32.5,156.5 C 31.5,156.5 30.5,156.5 29.5,156.5C 29.2627,157.791 29.596,158.791 30.5,159.5C 32.9131,161.887 35.5798,164.054 38.5,166C 39.305,167.113 39.9717,168.279 40.5,169.5C 38.0767,167.863 35.41,167.363 32.5,168C 33.6956,168.654 33.6956,169.154 32.5,169.5C 31.7691,167.599 31.7691,165.599 32.5,163.5C 31.325,163.719 30.325,163.386 29.5,162.5C 26.1469,157.431 27.1469,155.431 32.5,156.5 Z"/></g>
<g><path style="opacity:0.004" fill="#fefffe" d="M 8.5,168.5 C 9.83333,169.167 9.83333,169.167 8.5,168.5 Z"/></g>
<g><path style="opacity:0.169" fill="#aaafdb" d="M 40.5,169.5 C 41.9063,169.973 42.573,170.973 42.5,172.5C 41.0937,172.027 40.427,171.027 40.5,169.5 Z"/></g>
<g><path style="opacity:1" fill="#6d76bb" d="M 81.5,178.5 C 66.5638,183.541 55.5638,178.874 48.5,164.5C 48.4431,163.391 48.1098,162.391 47.5,161.5C 49.6891,161.207 51.6891,160.707 53.5,160C 52.6893,162.615 52.6893,165.448 53.5,168.5C 55.0712,170.415 57.0712,171.415 59.5,171.5C 59.5,170.5 59.5,169.5 59.5,168.5C 64.1508,169.96 64.4841,172.126 60.5,175C 60.9981,176.158 61.8315,176.991 63,177.5C 69.1192,178.438 75.2859,178.772 81.5,178.5 Z"/></g>
<g><path style="opacity:0.11" fill="#cccef2" d="M 42.5,172.5 C 43.9063,172.973 44.573,173.973 44.5,175.5C 43.0937,175.027 42.427,174.027 42.5,172.5 Z"/></g>
<g><path style="opacity:0.576" fill="#888ec5" d="M 210.5,167.5 C 207.727,174.052 203.727,179.719 198.5,184.5C 198.5,183.167 198.5,181.833 198.5,180.5C 199.5,180.5 200.5,180.5 201.5,180.5C 203.061,176.038 204.894,172.372 207,169.5C 208.113,168.695 209.279,168.028 210.5,167.5 Z"/></g>
<g><path style="opacity:0.38" fill="#777fb3" d="M 86.5,169.5 C 86.1743,172.311 85.3409,174.978 84,177.5C 83.3292,178.252 82.4959,178.586 81.5,178.5C 82.8766,175.178 84.5433,172.178 86.5,169.5 Z"/></g>
<g><path style="opacity:0.514" fill="#7f85bb" d="M 18.5,175.5 C 19.5832,175.539 20.5832,175.873 21.5,176.5C 22.9333,179.707 24.6,182.707 26.5,185.5C 23.3637,182.571 20.697,179.238 18.5,175.5 Z"/></g>
<g><path style="opacity:0.694" fill="#797fb4" d="M 44.5,175.5 C 45.7362,177.649 46.7362,179.982 47.5,182.5C 47.5,183.167 47.5,183.833 47.5,184.5C 44.925,182.155 43.925,179.155 44.5,175.5 Z"/></g>
<g><path style="opacity:0.004" fill="#fefffe" d="M 218.5,182.5 C 219.833,183.167 219.833,183.167 218.5,182.5 Z"/></g>
<g><path style="opacity:0.114" fill="#ddddf5" d="M 47.5,182.5 C 48.9063,182.973 49.573,183.973 49.5,185.5C 48.8333,185.167 48.1667,184.833 47.5,184.5C 47.5,183.833 47.5,183.167 47.5,182.5 Z"/></g>
<g><path style="opacity:0.004" fill="#fefffe" d="M 218.5,185.5 C 219.833,186.167 219.833,186.167 218.5,185.5 Z"/></g>
<g><path style="opacity:0.396" fill="#c2c6de" d="M 49.5,185.5 C 51.1667,186.5 52.5,187.833 53.5,189.5C 51.9382,189.267 50.6049,188.6 49.5,187.5C 49.5,186.833 49.5,186.167 49.5,185.5 Z"/></g>
<g><path style="opacity:0.144" fill="#b2b9e7" d="M 139.5,177.5 C 140.331,189.993 140.831,202.66 141,215.5C 141.662,216.984 142.496,218.317 143.5,219.5C 141.983,219.489 140.816,218.823 140,217.5C 139.5,204.171 139.333,190.837 139.5,177.5 Z"/></g>
<g><path style="opacity:0.784" fill="#747db9" d="M 26.5,186.5 C 28.4352,187.15 30.4352,187.483 32.5,187.5C 33.7834,190.01 34.7834,192.677 35.5,195.5C 32.1667,192.833 29.1667,189.833 26.5,186.5 Z"/></g>
<g><path style="opacity:0.995" fill="#6472bf" d="M 49.5,187.5 C 50.6049,188.6 51.9382,189.267 53.5,189.5C 55.5368,190.846 57.5368,192.18 59.5,193.5C 56.8205,193.673 54.4872,194.673 52.5,196.5C 51.2519,195.96 50.0852,195.293 49,194.5C 48.6667,194.833 48.3333,195.167 48,195.5C 48.6762,197.459 49.6762,199.459 51,201.5C 51.4935,203.134 51.6602,204.801 51.5,206.5C 50.8333,206.5 50.1667,206.5 49.5,206.5C 47.5956,206.262 46.2623,205.262 45.5,203.5C 48.734,202.994 49.4007,201.328 47.5,198.5C 46.325,198.719 45.325,198.386 44.5,197.5C 46.6743,195.033 48.341,191.7 49.5,187.5 Z"/></g>
<g><path style="opacity:0.004" fill="#fefffe" d="M 116.5,190.5 C 117.833,191.167 117.833,191.167 116.5,190.5 Z"/></g>
<g><path style="opacity:0.239" fill="#a9b0db" d="M 59.5,193.5 C 67.5939,195.37 75.5939,196.037 83.5,195.5C 77.217,196.584 70.8837,196.751 64.5,196C 62.256,195.95 60.5893,195.117 59.5,193.5 Z"/></g>
<g><path style="opacity:0.999" fill="#757ec2" d="M 198.5,184.5 C 193.521,191.479 187.521,197.479 180.5,202.5C 180.302,200.425 180.135,198.425 180,196.5C 182.382,195.446 184.882,194.779 187.5,194.5C 187.354,192.058 188.187,191.391 190,192.5C 190.249,189.823 191.249,187.49 193,185.5C 193.414,185.957 193.914,186.291 194.5,186.5C 195.524,185.147 196.857,184.48 198.5,184.5 Z"/></g>
<g><path style="opacity:0.694" fill="#9297c9" d="M 35.5,195.5 C 38.4274,196.097 40.4274,197.764 41.5,200.5C 38.9108,199.581 36.9108,197.914 35.5,195.5 Z"/></g>
<g><path style="opacity:0.004" fill="#fefffe" d="M 215.5,196.5 C 216.833,197.167 216.833,197.167 215.5,196.5 Z"/></g>
<g><path style="opacity:1" fill="#5f6cc0" d="M 59.5,193.5 C 60.5893,195.117 62.256,195.95 64.5,196C 70.8837,196.751 77.217,196.584 83.5,195.5C 84.8333,202.5 84.8333,209.5 83.5,216.5C 82.0093,217.457 80.176,218.123 78,218.5C 73.4628,216.323 68.6295,214.989 63.5,214.5C 63.5858,213.504 63.2524,212.671 62.5,212C 58.8113,210.156 55.1447,208.322 51.5,206.5C 51.6602,204.801 51.4935,203.134 51,201.5C 49.6762,199.459 48.6762,197.459 48,195.5C 48.3333,195.167 48.6667,194.833 49,194.5C 50.0852,195.293 51.2519,195.96 52.5,196.5C 54.4872,194.673 56.8205,193.673 59.5,193.5 Z"/></g>
<g><path style="opacity:0.004" fill="#fefffe" d="M 137.5,200.5 C 138.833,201.167 138.833,201.167 137.5,200.5 Z"/></g>
<g><path style="opacity:0.271" fill="#9fa9d4" d="M 41.5,200.5 C 43.4044,200.738 44.7377,201.738 45.5,203.5C 43.5956,203.262 42.2623,202.262 41.5,200.5 Z"/></g>
<g><path style="opacity:0.153" fill="#bcc1e2" d="M 49.5,206.5 C 50.1667,206.5 50.8333,206.5 51.5,206.5C 51.8333,207.167 52.1667,207.833 52.5,208.5C 50.9731,208.573 49.9731,207.906 49.5,206.5 Z"/></g>
<g><path style="opacity:1" fill="#8288c6" d="M 178.5,203.5 C 174.521,207.494 169.855,210.494 164.5,212.5C 164.5,211.167 164.5,209.833 164.5,208.5C 166.5,208.5 168.5,208.5 170.5,208.5C 170.5,206.833 170.5,205.167 170.5,203.5C 173.167,203.5 175.833,203.5 178.5,203.5 Z"/></g>
<g><path style="opacity:0.004" fill="#fefffe" d="M 107.5,210.5 C 108.833,211.167 108.833,211.167 107.5,210.5 Z"/></g>
<g><path style="opacity:0.004" fill="#fefffe" d="M 200.5,210.5 C 201.833,211.167 201.833,211.167 200.5,210.5 Z"/></g>
<g><path style="opacity:0.725" fill="#7e86ba" d="M 51.5,206.5 C 55.1447,208.322 58.8113,210.156 62.5,212C 63.2524,212.671 63.5858,213.504 63.5,214.5C 59.3447,213.258 55.678,211.258 52.5,208.5C 52.1667,207.833 51.8333,207.167 51.5,206.5 Z"/></g>
<g><path style="opacity:0.867" fill="#8085c2" d="M 164.5,212.5 C 159.575,215.593 154.242,217.926 148.5,219.5C 149.183,217.824 150.517,217.157 152.5,217.5C 152.5,216.5 152.5,215.5 152.5,214.5C 154.379,212.834 158.379,212.167 164.5,212.5 Z"/></g>
<g><path style="opacity:0.004" fill="#fefffe" d="M 53.5,217.5 C 54.8333,218.167 54.8333,218.167 53.5,217.5 Z"/></g>
<g><path style="opacity:0.502" fill="#848bbf" d="M 63.5,214.5 C 68.6295,214.989 73.4628,216.323 78,218.5C 80.176,218.123 82.0093,217.457 83.5,216.5C 82.8919,218.99 81.2252,220.324 78.5,220.5C 73.0865,219.257 68.0865,217.257 63.5,214.5 Z"/></g>
<g><path style="opacity:0.004" fill="#fefffe" d="M 131.5,220.5 C 132.833,221.167 132.833,221.167 131.5,220.5 Z"/></g>
</svg>
