<?xml version="1.0" encoding="UTF-8"?>
<!DOCTYPE svg PUBLIC "-//W3C//DTD SVG 1.1//EN" "http://www.w3.org/Graphics/SVG/1.1/DTD/svg11.dtd">
<svg xmlns="http://www.w3.org/2000/svg" version="1.1" width="600px" height="338px" style="shape-rendering:geometricPrecision; text-rendering:geometricPrecision; image-rendering:optimizeQuality; fill-rule:evenodd; clip-rule:evenodd" xmlns:xlink="http://www.w3.org/1999/xlink">
<g><path style="opacity:1" fill="#363636" d="M -0.5,-0.5 C 55.5,-0.5 111.5,-0.5 167.5,-0.5C 167.5,0.5 167.5,1.5 167.5,2.5C 164.15,2.33499 160.817,2.50166 157.5,3C 155.403,6.2103 152.403,8.04364 148.5,8.5C 146.766,11.2003 144.432,13.2003 141.5,14.5C 142.853,15.5237 143.52,16.857 143.5,18.5C 132.833,18.5 122.167,18.5 111.5,18.5C 111.5,17.5 111.5,16.5 111.5,15.5C 105.167,15.5 98.8333,15.5 92.5,15.5C 92.5,18.1667 92.5,20.8333 92.5,23.5C 88.1667,23.5 83.8333,23.5 79.5,23.5C 79.5,26.1667 79.5,28.8333 79.5,31.5C 76.8333,31.5 74.1667,31.5 71.5,31.5C 71.5,34.1667 71.5,36.8333 71.5,39.5C 68.8333,39.5 66.1667,39.5 63.5,39.5C 63.5,42.1667 63.5,44.8333 63.5,47.5C 60.8333,47.5 58.1667,47.5 55.5,47.5C 55.5,50.1667 55.5,52.8333 55.5,55.5C 52.8333,55.5 50.1667,55.5 47.5,55.5C 47.5,58.1667 47.5,60.8333 47.5,63.5C 44.8333,63.5 42.1667,63.5 39.5,63.5C 39.5,68.8333 39.5,74.1667 39.5,79.5C 34.1667,79.5 28.8333,79.5 23.5,79.5C 23.5,82.1667 23.5,84.8333 23.5,87.5C 26.1667,87.5 28.8333,87.5 31.5,87.5C 31.5,90.1667 31.5,92.8333 31.5,95.5C 28.8333,95.5 26.1667,95.5 23.5,95.5C 23.5,98.1667 23.5,100.833 23.5,103.5C 20.6146,103.194 17.9479,103.527 15.5,104.5C 10.1667,104.5 4.83333,104.5 -0.5,104.5C -0.5,69.5 -0.5,34.5 -0.5,-0.5 Z"/></g>
<g><path style="opacity:1" fill="#3b3b3b" d="M 167.5,-0.5 C 258.167,-0.5 348.833,-0.5 439.5,-0.5C 439.5,2.16667 439.5,4.83333 439.5,7.5C 444.833,7.5 450.167,7.5 455.5,7.5C 455.5,10.1667 455.5,12.8333 455.5,15.5C 460.833,15.5 466.167,15.5 471.5,15.5C 471.5,18.1667 471.5,20.8333 471.5,23.5C 474.167,23.5 476.833,23.5 479.5,23.5C 479.5,26.1667 479.5,28.8333 479.5,31.5C 482.167,31.5 484.833,31.5 487.5,31.5C 487.5,34.1667 487.5,36.8333 487.5,39.5C 495.5,39.5 503.5,39.5 511.5,39.5C 511.5,41.1667 511.5,42.8333 511.5,44.5C 514.167,44.5 516.833,44.5 519.5,44.5C 519.5,48.1667 519.5,51.8333 519.5,55.5C 522.167,55.5 524.833,55.5 527.5,55.5C 527.5,58.1667 527.5,60.8333 527.5,63.5C 515.919,63.8211 504.419,63.4878 493,62.5C 469.925,64.2 446.759,64.8666 423.5,64.5C 423.5,64.1667 423.5,63.8333 423.5,63.5C 423.5,62.5 423.5,61.5 423.5,60.5C 434.185,60.3897 444.852,60.723 455.5,61.5C 455.5,60.5 455.5,59.5 455.5,58.5C 452.753,58.8134 450.086,58.48 447.5,57.5C 452.802,56.6705 458.136,56.1705 463.5,56C 459.789,55.8253 456.122,55.3253 452.5,54.5C 450.344,52.3711 448.677,50.0378 447.5,47.5C 444.833,47.5 442.167,47.5 439.5,47.5C 439.5,46.5 439.5,45.5 439.5,44.5C 431.568,43.1757 423.568,42.5091 415.5,42.5C 415.5,38.8333 415.5,35.1667 415.5,31.5C 410.167,31.5 404.833,31.5 399.5,31.5C 399.5,32.5 399.5,33.5 399.5,34.5C 394.167,34.5 388.833,34.5 383.5,34.5C 383.5,33.5 383.5,32.5 383.5,31.5C 386.167,31.5 388.833,31.5 391.5,31.5C 391.5,28.8333 391.5,26.1667 391.5,23.5C 386.167,23.5 380.833,23.5 375.5,23.5C 375.5,24.5 375.5,25.5 375.5,26.5C 372.833,26.5 370.167,26.5 367.5,26.5C 367.5,25.5 367.5,24.5 367.5,23.5C 364.833,23.5 362.167,23.5 359.5,23.5C 359.5,26.1667 359.5,28.8333 359.5,31.5C 356.833,31.5 354.167,31.5 351.5,31.5C 351.5,29.8333 351.5,28.1667 351.5,26.5C 348.833,26.5 346.167,26.5 343.5,26.5C 343.5,28.1667 343.5,29.8333 343.5,31.5C 340.833,31.5 338.167,31.5 335.5,31.5C 335.5,30.5 335.5,29.5 335.5,28.5C 332.833,28.5 330.167,28.5 327.5,28.5C 327.5,32.1667 327.5,35.8333 327.5,39.5C 322.167,39.5 316.833,39.5 311.5,39.5C 311.5,42.1667 311.5,44.8333 311.5,47.5C 306.167,47.5 300.833,47.5 295.5,47.5C 295.5,48.5 295.5,49.5 295.5,50.5C 292.833,50.5 290.167,50.5 287.5,50.5C 287.5,49.5 287.5,48.5 287.5,47.5C 289.167,47.5 290.833,47.5 292.5,47.5C 292.5,44.8333 292.5,42.1667 292.5,39.5C 290.833,39.5 289.167,39.5 287.5,39.5C 287.5,36.8333 287.5,34.1667 287.5,31.5C 284.833,31.5 282.167,31.5 279.5,31.5C 279.5,28.8333 279.5,26.1667 279.5,23.5C 274.167,23.5 268.833,23.5 263.5,23.5C 263.5,24.5 263.5,25.5 263.5,26.5C 260.833,26.5 258.167,26.5 255.5,26.5C 255.5,25.5 255.5,24.5 255.5,23.5C 256.5,23.5 257.5,23.5 258.5,23.5C 258.5,20.8333 258.5,18.1667 258.5,15.5C 254.833,15.5 251.167,15.5 247.5,15.5C 247.5,18.1667 247.5,20.8333 247.5,23.5C 246.5,23.5 245.5,23.5 244.5,23.5C 243.833,34.1667 243.167,34.1667 242.5,23.5C 241.5,23.5 240.5,23.5 239.5,23.5C 239.5,20.8333 239.5,18.1667 239.5,15.5C 234.167,15.5 228.833,15.5 223.5,15.5C 223.66,17.1992 223.494,18.8659 223,20.5C 221.833,18.8333 220.667,17.1667 219.5,15.5C 218.333,17.1667 217.167,18.8333 216,20.5C 213.544,18.6787 210.711,18.012 207.5,18.5C 207.5,17.5 207.5,16.5 207.5,15.5C 201.833,15.5 196.167,15.5 190.5,15.5C 191.334,21.1925 189.334,25.5259 184.5,28.5C 183.614,29.325 183.281,30.325 183.5,31.5C 181.833,31.5 180.167,31.5 178.5,31.5C 178.5,34.1667 178.5,36.8333 178.5,39.5C 177.5,39.5 176.5,39.5 175.5,39.5C 175.5,40.5 175.5,41.5 175.5,42.5C 172.833,42.5 170.167,42.5 167.5,42.5C 167.662,40.4727 167.495,38.4727 167,36.5C 163.244,39.1467 161.744,42.8134 162.5,47.5C 161.5,47.5 160.5,47.5 159.5,47.5C 159.5,48.5 159.5,49.5 159.5,50.5C 151.5,50.5 143.5,50.5 135.5,50.5C 135.257,53.7856 134.423,56.4522 133,58.5C 132.221,57.2718 131.221,56.2718 130,55.5C 126.471,55.9725 123.138,56.9725 120,58.5C 119.667,58.1667 119.333,57.8333 119,57.5C 112.247,58.314 105.414,58.814 98.5,59C 91.9769,60.8777 85.3103,61.8777 78.5,62C 77.5842,62.2784 76.9175,62.7784 76.5,63.5C 66.6503,64.8559 63.1503,70.1892 66,79.5C 66.3333,79.8333 66.6667,80.1667 67,80.5C 67.1862,77.9644 67.6862,75.631 68.5,73.5C 68.1134,78.0803 68.9468,82.4136 71,86.5C 76.1807,92.0169 81.014,97.8503 85.5,104C 83.3309,102.886 81.4976,103.386 80,105.5C 58.5755,104.506 37.0755,104.173 15.5,104.5C 17.9479,103.527 20.6146,103.194 23.5,103.5C 23.5,100.833 23.5,98.1667 23.5,95.5C 26.1667,95.5 28.8333,95.5 31.5,95.5C 31.5,92.8333 31.5,90.1667 31.5,87.5C 28.8333,87.5 26.1667,87.5 23.5,87.5C 23.5,84.8333 23.5,82.1667 23.5,79.5C 28.8333,79.5 34.1667,79.5 39.5,79.5C 39.5,74.1667 39.5,68.8333 39.5,63.5C 42.1667,63.5 44.8333,63.5 47.5,63.5C 47.5,60.8333 47.5,58.1667 47.5,55.5C 50.1667,55.5 52.8333,55.5 55.5,55.5C 55.5,52.8333 55.5,50.1667 55.5,47.5C 58.1667,47.5 60.8333,47.5 63.5,47.5C 63.5,44.8333 63.5,42.1667 63.5,39.5C 66.1667,39.5 68.8333,39.5 71.5,39.5C 71.5,36.8333 71.5,34.1667 71.5,31.5C 74.1667,31.5 76.8333,31.5 79.5,31.5C 79.5,28.8333 79.5,26.1667 79.5,23.5C 83.8333,23.5 88.1667,23.5 92.5,23.5C 92.5,20.8333 92.5,18.1667 92.5,15.5C 98.8333,15.5 105.167,15.5 111.5,15.5C 111.5,16.5 111.5,17.5 111.5,18.5C 122.167,18.5 132.833,18.5 143.5,18.5C 143.52,16.857 142.853,15.5237 141.5,14.5C 144.432,13.2003 146.766,11.2003 148.5,8.5C 152.403,8.04364 155.403,6.2103 157.5,3C 160.817,2.50166 164.15,2.33499 167.5,2.5C 167.5,1.5 167.5,0.5 167.5,-0.5 Z"/></g>
<g><path style="opacity:1" fill="#343434" d="M 439.5,-0.5 C 492.833,-0.5 546.167,-0.5 599.5,-0.5C 599.5,22.1667 599.5,44.8333 599.5,67.5C 578.144,67.0989 556.81,67.0989 535.5,67.5C 523.48,67.164 511.48,66.4973 499.5,65.5C 494.151,65.6117 488.817,65.9451 483.5,66.5C 463.343,65.8806 443.343,65.2139 423.5,64.5C 446.759,64.8666 469.925,64.2 493,62.5C 504.419,63.4878 515.919,63.8211 527.5,63.5C 527.5,60.8333 527.5,58.1667 527.5,55.5C 524.833,55.5 522.167,55.5 519.5,55.5C 519.5,51.8333 519.5,48.1667 519.5,44.5C 516.833,44.5 514.167,44.5 511.5,44.5C 511.5,42.8333 511.5,41.1667 511.5,39.5C 503.5,39.5 495.5,39.5 487.5,39.5C 487.5,36.8333 487.5,34.1667 487.5,31.5C 484.833,31.5 482.167,31.5 479.5,31.5C 479.5,28.8333 479.5,26.1667 479.5,23.5C 476.833,23.5 474.167,23.5 471.5,23.5C 471.5,20.8333 471.5,18.1667 471.5,15.5C 466.167,15.5 460.833,15.5 455.5,15.5C 455.5,12.8333 455.5,10.1667 455.5,7.5C 450.167,7.5 444.833,7.5 439.5,7.5C 439.5,4.83333 439.5,2.16667 439.5,-0.5 Z"/></g>
<g><path style="opacity:1" fill="#404040" d="M 423.5,63.5 C 404.702,64.2318 386.036,63.0652 367.5,60C 323.845,58.4754 280.178,58.1421 236.5,59C 230.524,59.2017 230.19,60.2017 235.5,62C 231.5,62.6667 227.5,63.3333 223.5,64C 207.837,64.4999 192.17,64.6666 176.5,64.5C 183.985,62.3748 191.652,60.7081 199.5,59.5C 178.174,58.3336 156.841,58.1669 135.5,59C 133.608,59.9734 131.608,60.6401 129.5,61C 112.641,61.1495 95.9746,61.9828 79.5,63.5C 78.5,63.5 77.5,63.5 76.5,63.5C 76.9175,62.7784 77.5842,62.2784 78.5,62C 85.3103,61.8777 91.9769,60.8777 98.5,59C 105.414,58.814 112.247,58.314 119,57.5C 119.333,57.8333 119.667,58.1667 120,58.5C 123.138,56.9725 126.471,55.9725 130,55.5C 131.221,56.2718 132.221,57.2718 133,58.5C 134.423,56.4522 135.257,53.7856 135.5,50.5C 143.5,50.5 151.5,50.5 159.5,50.5C 159.5,49.5 159.5,48.5 159.5,47.5C 160.5,47.5 161.5,47.5 162.5,47.5C 161.744,42.8134 163.244,39.1467 167,36.5C 167.495,38.4727 167.662,40.4727 167.5,42.5C 170.167,42.5 172.833,42.5 175.5,42.5C 175.5,41.5 175.5,40.5 175.5,39.5C 176.5,39.5 177.5,39.5 178.5,39.5C 178.5,36.8333 178.5,34.1667 178.5,31.5C 180.167,31.5 181.833,31.5 183.5,31.5C 183.281,30.325 183.614,29.325 184.5,28.5C 189.334,25.5259 191.334,21.1925 190.5,15.5C 196.167,15.5 201.833,15.5 207.5,15.5C 207.5,16.5 207.5,17.5 207.5,18.5C 210.711,18.012 213.544,18.6787 216,20.5C 217.167,18.8333 218.333,17.1667 219.5,15.5C 220.667,17.1667 221.833,18.8333 223,20.5C 223.494,18.8659 223.66,17.1992 223.5,15.5C 228.833,15.5 234.167,15.5 239.5,15.5C 239.5,18.1667 239.5,20.8333 239.5,23.5C 240.5,23.5 241.5,23.5 242.5,23.5C 243.167,34.1667 243.833,34.1667 244.5,23.5C 245.5,23.5 246.5,23.5 247.5,23.5C 247.5,20.8333 247.5,18.1667 247.5,15.5C 251.167,15.5 254.833,15.5 258.5,15.5C 258.5,18.1667 258.5,20.8333 258.5,23.5C 257.5,23.5 256.5,23.5 255.5,23.5C 255.5,24.5 255.5,25.5 255.5,26.5C 258.167,26.5 260.833,26.5 263.5,26.5C 263.5,25.5 263.5,24.5 263.5,23.5C 268.833,23.5 274.167,23.5 279.5,23.5C 279.5,26.1667 279.5,28.8333 279.5,31.5C 282.167,31.5 284.833,31.5 287.5,31.5C 287.5,34.1667 287.5,36.8333 287.5,39.5C 289.167,39.5 290.833,39.5 292.5,39.5C 292.5,42.1667 292.5,44.8333 292.5,47.5C 290.833,47.5 289.167,47.5 287.5,47.5C 287.5,48.5 287.5,49.5 287.5,50.5C 290.167,50.5 292.833,50.5 295.5,50.5C 295.5,49.5 295.5,48.5 295.5,47.5C 300.833,47.5 306.167,47.5 311.5,47.5C 311.5,44.8333 311.5,42.1667 311.5,39.5C 316.833,39.5 322.167,39.5 327.5,39.5C 327.5,35.8333 327.5,32.1667 327.5,28.5C 330.167,28.5 332.833,28.5 335.5,28.5C 335.5,29.5 335.5,30.5 335.5,31.5C 338.167,31.5 340.833,31.5 343.5,31.5C 343.5,29.8333 343.5,28.1667 343.5,26.5C 346.167,26.5 348.833,26.5 351.5,26.5C 351.5,28.1667 351.5,29.8333 351.5,31.5C 354.167,31.5 356.833,31.5 359.5,31.5C 359.5,28.8333 359.5,26.1667 359.5,23.5C 362.167,23.5 364.833,23.5 367.5,23.5C 367.5,24.5 367.5,25.5 367.5,26.5C 370.167,26.5 372.833,26.5 375.5,26.5C 375.5,25.5 375.5,24.5 375.5,23.5C 380.833,23.5 386.167,23.5 391.5,23.5C 391.5,26.1667 391.5,28.8333 391.5,31.5C 388.833,31.5 386.167,31.5 383.5,31.5C 383.5,32.5 383.5,33.5 383.5,34.5C 388.833,34.5 394.167,34.5 399.5,34.5C 399.5,33.5 399.5,32.5 399.5,31.5C 404.833,31.5 410.167,31.5 415.5,31.5C 415.5,35.1667 415.5,38.8333 415.5,42.5C 423.568,42.5091 431.568,43.1757 439.5,44.5C 439.5,45.5 439.5,46.5 439.5,47.5C 442.167,47.5 444.833,47.5 447.5,47.5C 448.677,50.0378 450.344,52.3711 452.5,54.5C 456.122,55.3253 459.789,55.8253 463.5,56C 458.136,56.1705 452.802,56.6705 447.5,57.5C 450.086,58.48 452.753,58.8134 455.5,58.5C 455.5,59.5 455.5,60.5 455.5,61.5C 444.852,60.723 434.185,60.3897 423.5,60.5C 423.5,61.5 423.5,62.5 423.5,63.5 Z"/></g>
<g><path style="opacity:1" fill="#2e2e2e" d="M 423.5,63.5 C 423.5,63.8333 423.5,64.1667 423.5,64.5C 443.343,65.2139 463.343,65.8806 483.5,66.5C 488.817,65.9451 494.151,65.6117 499.5,65.5C 511.48,66.4973 523.48,67.164 535.5,67.5C 556.81,67.0989 578.144,67.0989 599.5,67.5C 599.5,157.5 599.5,247.5 599.5,337.5C 470.5,337.5 341.5,337.5 212.5,337.5C 213.552,335.744 215.219,335.077 217.5,335.5C 218.833,322.172 220.166,308.838 221.5,295.5C 222.329,300.802 222.829,306.136 223,311.5C 225.737,312.61 228.571,312.777 231.5,312C 229.109,311.713 226.776,311.213 224.5,310.5C 223.167,305.167 223.167,299.833 224.5,294.5C 231.143,293.868 237.809,293.202 244.5,292.5C 243.112,289.921 241.612,289.921 240,292.5C 237,291.167 234,291.167 231,292.5C 229,291.833 227,291.167 225,290.5C 225,285.505 225.5,280.505 226.5,275.5C 228.815,274.579 228.982,273.246 227,271.5C 226.503,268.854 226.336,266.187 226.5,263.5C 228.143,263.52 229.476,262.853 230.5,261.5C 236.114,262.621 241.78,262.788 247.5,262C 244.774,261.818 242.107,261.318 239.5,260.5C 251.5,260.167 263.5,259.833 275.5,259.5C 303.506,259.998 331.506,260.498 359.5,261C 346.155,261.445 332.822,262.112 319.5,263C 320.61,265.737 320.777,268.571 320,271.5C 318.261,272.894 316.261,273.561 314,273.5C 310.5,273 307,272.5 303.5,272C 302.718,269.26 302.218,266.426 302,263.5C 301.667,266.167 301.333,268.833 301,271.5C 300.5,272 300,272.5 299.5,273C 293.047,273.85 286.714,273.35 280.5,271.5C 275.867,272.552 271.2,273.052 266.5,273C 264.975,270.092 263.975,266.926 263.5,263.5C 262.217,266.372 262.217,269.205 263.5,272C 257.859,273.072 252.193,273.405 246.5,273C 245.549,269.943 245.216,266.777 245.5,263.5C 244.5,263.5 243.5,263.5 242.5,263.5C 242.5,266.5 242.5,269.5 242.5,272.5C 237.968,272.069 233.635,272.569 229.5,274C 233.833,275 238.167,276 242.5,277C 242.64,280.614 242.307,284.281 241.5,288C 242,288.5 242.5,289 243,289.5C 244.792,285.435 244.959,281.269 243.5,277C 248.079,275.84 252.746,275.007 257.5,274.5C 258.554,274.68 259.554,275.013 260.5,275.5C 261.502,291.487 262.502,291.487 263.5,275.5C 268.833,275.5 274.167,275.5 279.5,275.5C 279.833,279.5 280.167,279.5 280.5,275.5C 286.261,275.107 291.928,275.107 297.5,275.5C 298.852,276.518 299.852,277.851 300.5,279.5C 300.554,278.47 300.888,277.303 301.5,276C 306.167,275.333 310.833,275.333 315.5,276C 317.481,276.605 317.815,277.605 316.5,279C 317.125,281.8 317.792,284.634 318.5,287.5C 319.491,283.555 319.824,279.555 319.5,275.5C 324.844,275.334 330.177,275.501 335.5,276C 336.136,279.79 336.803,283.623 337.5,287.5C 338.795,283.62 338.795,279.786 337.5,276C 338.5,275.5 339.5,275 340.5,274.5C 344.367,275.135 348.2,275.801 352,276.5C 353.131,275.396 353.965,275.729 354.5,277.5C 354.527,282.303 354.527,287.136 354.5,292C 350.67,292.417 346.837,292.584 343,292.5C 340.551,292.139 338.218,291.472 336,290.5C 333.446,291.771 330.613,292.438 327.5,292.5C 318.176,292.414 308.842,292.081 299.5,291.5C 295.035,292.005 290.702,292.839 286.5,294C 291.985,294.287 297.318,294.121 302.5,293.5C 304.638,294.243 306.804,294.91 309,295.5C 321.19,295.15 333.356,294.817 345.5,294.5C 345.5,300.167 345.5,305.833 345.5,311.5C 336.161,311.334 326.827,311.5 317.5,312C 318,312.5 318.5,313 319,313.5C 322.581,312.663 326.081,312.329 329.5,312.5C 330.814,313.313 331.981,314.313 333,315.5C 336.597,312.616 340.764,311.782 345.5,313C 346.819,314.628 348.152,314.461 349.5,312.5C 350.314,314.766 350.814,317.1 351,319.5C 351.495,317.527 351.662,315.527 351.5,313.5C 357.341,312.72 363.341,312.72 369.5,313.5C 369.316,318.03 369.649,322.697 370.5,327.5C 371.328,323.204 371.828,318.871 372,314.5C 372.833,313.667 373.667,312.833 374.5,312C 371.854,311.503 369.187,311.336 366.5,311.5C 366.334,306.156 366.501,300.823 367,295.5C 372.407,294.527 377.907,294.193 383.5,294.5C 383.5,300.167 383.5,305.833 383.5,311.5C 380.813,311.336 378.146,311.503 375.5,312C 378.89,312.246 382.223,312.746 385.5,313.5C 386.895,312.185 387.895,312.519 388.5,314.5C 387.194,318.207 387.36,321.874 389,325.5C 390.062,321.363 390.895,317.196 391.5,313C 395.225,312.24 398.892,312.407 402.5,313.5C 403.478,313.023 404.311,312.357 405,311.5C 406.069,316.755 406.903,322.089 407.5,327.5C 408.494,322.544 408.827,317.544 408.5,312.5C 413.762,312.805 418.928,312.471 424,311.5C 425.642,332.689 426.808,332.689 427.5,311.5C 432.544,311.173 437.544,311.506 442.5,312.5C 443.77,314.548 444.103,316.548 443.5,318.5C 444.085,321.503 444.752,324.503 445.5,327.5C 446.046,322.474 446.379,317.474 446.5,312.5C 449.5,311.833 452.5,311.167 455.5,310.5C 450.95,309.2 446.45,309.2 442,310.5C 441.565,305.574 440.898,300.574 440,295.5C 439.667,298.167 439.333,300.833 439,303.5C 437.548,304.907 437.715,306.407 439.5,308C 439.167,308.333 438.833,308.667 438.5,309C 433.346,309.17 428.013,309.337 422.5,309.5C 422.662,307.473 422.495,305.473 422,303.5C 421.333,306.167 420.667,306.167 420,303.5C 419.504,305.035 419.67,306.535 420.5,308C 420.133,310.244 419.133,310.744 417.5,309.5C 416.808,310.025 416.308,310.692 416,311.5C 413,310.167 410,310.167 407,311.5C 406.676,309.431 405.842,309.098 404.5,310.5C 403.833,308.167 403.167,305.833 402.5,303.5C 402.388,306.255 401.888,308.922 401,311.5C 396.333,310.167 391.667,310.167 387,311.5C 385.978,310.646 385.145,309.646 384.5,308.5C 385.095,304.072 385.428,299.406 385.5,294.5C 389.514,294.666 393.514,294.499 397.5,294C 395.744,293.798 394.078,293.298 392.5,292.5C 394.379,287.4 395.046,282.067 394.5,276.5C 396.571,275.191 399.071,274.525 402,274.5C 410.775,274.945 419.609,274.945 428.5,274.5C 429.824,291.772 430.49,291.772 430.5,274.5C 435.833,274.5 441.167,274.5 446.5,274.5C 446.833,278.5 447.167,278.5 447.5,274.5C 461.471,273.774 475.471,273.774 489.5,274.5C 490.825,279.102 491.825,283.768 492.5,288.5C 492.023,289.478 491.357,290.311 490.5,291C 491.333,291.833 492.167,292.667 493,293.5C 493.333,296.167 493.667,298.833 494,301.5C 495.163,299.715 495.83,297.715 496,295.5C 497.916,298.368 498.416,301.368 497.5,304.5C 500.151,309.722 502.485,309.389 504.5,303.5C 505.818,292.915 506.485,292.915 506.5,303.5C 507.5,303.5 508.5,303.5 509.5,303.5C 508.829,289.846 508.329,276.179 508,262.5C 507.858,255.932 506.024,249.932 502.5,244.5C 500.885,243.846 499.218,243.346 497.5,243C 488.833,242.333 480.167,242.333 471.5,243C 470.536,247.066 470.203,251.233 470.5,255.5C 441.5,255.5 412.5,255.5 383.5,255.5C 337.16,256.525 290.827,256.525 244.5,255.5C 244.223,252.552 244.556,249.719 245.5,247C 244.91,245.491 244.244,243.991 243.5,242.5C 234.282,242.425 224.948,242.591 215.5,243C 208.483,245.637 205.316,250.804 206,258.5C 203.565,255.772 201.565,256.106 200,259.5C 198.148,257.77 198.314,256.604 200.5,256C 198.892,255.342 197.725,255.842 197,257.5C 196.577,256.044 195.744,255.544 194.5,256C 195.376,257.585 196.709,258.585 198.5,259C 196.865,260.748 194.865,261.915 192.5,262.5C 192.667,262.833 192.833,263.167 193,263.5C 194.398,262.949 195.732,262.616 197,262.5C 197.078,264.657 197.245,266.657 197.5,268.5C 198.799,267.306 200.132,266.306 201.5,265.5C 202.239,265.369 202.906,265.536 203.5,266C 201.411,267.171 199.411,268.504 197.5,270C 199.747,271.655 202.08,271.988 204.5,271C 205.116,272.4 205.449,273.9 205.5,275.5C 204.041,296.169 203.708,316.836 204.5,337.5C 136.167,337.5 67.8333,337.5 -0.5,337.5C -0.5,259.833 -0.5,182.167 -0.5,104.5C 4.83333,104.5 10.1667,104.5 15.5,104.5C 37.0755,104.173 58.5755,104.506 80,105.5C 81.4976,103.386 83.3309,102.886 85.5,104C 81.014,97.8503 76.1807,92.0169 71,86.5C 68.9468,82.4136 68.1134,78.0803 68.5,73.5C 69.2508,70.2467 71.2508,68.08 74.5,67C 78.0863,65.8924 81.753,65.3924 85.5,65.5C 115.847,65.76 146.18,65.4267 176.5,64.5C 192.17,64.6666 207.837,64.4999 223.5,64C 227.5,63.3333 231.5,62.6667 235.5,62C 230.19,60.2017 230.524,59.2017 236.5,59C 280.178,58.1421 323.845,58.4754 367.5,60C 386.036,63.0652 404.702,64.2318 423.5,63.5 Z"/></g>
<g><path style="opacity:1" fill="#5f5f5f" d="M 176.5,64.5 C 146.18,65.4267 115.847,65.76 85.5,65.5C 101.995,64.6685 118.662,64.1685 135.5,64C 116.836,63.5001 98.1696,63.3334 79.5,63.5C 95.9746,61.9828 112.641,61.1495 129.5,61C 131.608,60.6401 133.608,59.9734 135.5,59C 156.841,58.1669 178.174,58.3336 199.5,59.5C 191.652,60.7081 183.985,62.3748 176.5,64.5 Z"/></g>
<g><path style="opacity:1" fill="#898989" d="M 76.5,63.5 C 77.5,63.5 78.5,63.5 79.5,63.5C 98.1696,63.3334 116.836,63.5001 135.5,64C 118.662,64.1685 101.995,64.6685 85.5,65.5C 81.753,65.3924 78.0863,65.8924 74.5,67C 71.2508,68.08 69.2508,70.2467 68.5,73.5C 67.6862,75.631 67.1862,77.9644 67,80.5C 66.6667,80.1667 66.3333,79.8333 66,79.5C 63.1503,70.1892 66.6503,64.8559 76.5,63.5 Z"/></g>
<g><path style="opacity:1" fill="#cbcbcb" d="M 163.5,102.5 C 165.827,102.247 167.827,102.914 169.5,104.5C 168.34,104.437 167.006,104.77 165.5,105.5C 164.081,104.995 163.415,103.995 163.5,102.5 Z"/></g>
<g><path style="opacity:1" fill="#a4a4a4" d="M 173.5,102.5 C 176.11,103.722 178.777,103.722 181.5,102.5C 183.397,102.728 184.73,103.728 185.5,105.5C 180.869,106.662 176.202,106.828 171.5,106C 171.043,105.586 170.709,105.086 170.5,104.5C 171.602,103.824 172.602,103.158 173.5,102.5 Z"/></g>
<g><path style="opacity:1" fill="#bebebe" d="M 288.5,102.5 C 291.371,103.679 294.204,103.679 297,102.5C 297.807,104.22 299.307,104.554 301.5,103.5C 303.044,103.79 304.377,104.456 305.5,105.5C 306.167,104.5 306.833,103.5 307.5,102.5C 309.733,102.864 311.566,103.864 313,105.5C 315.038,103.928 317.371,102.928 320,102.5C 320.49,103.793 320.657,105.127 320.5,106.5C 317.625,106.249 314.792,106.249 312,106.5C 310.674,106.245 309.674,105.578 309,104.5C 306.446,105.771 303.613,106.438 300.5,106.5C 297.387,106.438 294.554,105.771 292,104.5C 291.29,105.973 290.124,106.64 288.5,106.5C 288.5,105.167 288.5,103.833 288.5,102.5 Z"/></g>
<g><path style="opacity:1" fill="#a6a6a6" d="M 231.5,98.5 C 232.649,98.7911 233.316,99.6244 233.5,101C 234.657,104.113 235.157,107.28 235,110.5C 233.265,106.655 232.099,102.655 231.5,98.5 Z"/></g>
<g><path style="opacity:1" fill="#6b6b6b" d="M 134.5,112.5 C 138.775,111.726 141.775,113.226 143.5,117C 138.72,119.277 135.72,117.777 134.5,112.5 Z"/></g>
<g><path style="opacity:1" fill="#818181" d="M 148.5,113.5 C 152.545,113.642 156.379,113.642 160,113.5C 159.405,118.056 157.738,118.389 155,114.5C 154.383,115.449 154.549,116.282 155.5,117C 154.175,116.852 153.008,117.018 152,117.5C 151,114.833 150,114.833 149,117.5C 148.167,116.667 147.333,115.833 146.5,115C 147.416,114.722 148.082,114.222 148.5,113.5 Z"/></g>
<g><path style="opacity:1" fill="#929292" d="M 174.5,112.5 C 176.677,112.586 178.677,113.253 180.5,114.5C 181.833,115.833 181.833,117.167 180.5,118.5C 176.813,118.147 174.813,116.147 174.5,112.5 Z"/></g>
<g><path style="opacity:1" fill="#4b4b4b" d="M 405.5,114.5 C 412.199,113.793 418.532,114.793 424.5,117.5C 425.427,115.054 427.094,114.221 429.5,115C 428.027,115.71 427.36,116.876 427.5,118.5C 421.167,118.5 414.833,118.5 408.5,118.5C 408.671,115.203 408.005,114.869 406.5,117.5C 405.614,116.675 405.281,115.675 405.5,114.5 Z"/></g>
<g><path style="opacity:1" fill="#494949" d="M 472.5,112.5 C 473.529,113.126 474.529,113.959 475.5,115C 473.411,118.123 474.078,118.29 477.5,115.5C 478.293,116.355 477.96,117.189 476.5,118C 478.095,117.383 479.428,117.716 480.5,119C 469.527,119.21 458.694,119.377 448,119.5C 441.486,119.181 434.986,118.681 428.5,118C 431.066,117.44 433.732,116.274 436.5,114.5C 438.482,115.97 440.148,115.636 441.5,113.5C 444.489,115.039 447.656,116.039 451,116.5C 452.395,115.185 453.395,115.519 454,117.5C 454.5,117 455,116.5 455.5,116C 459.47,115.972 463.303,115.806 467,115.5C 469.376,115.315 471.209,114.315 472.5,112.5 Z"/></g>
<g><path style="opacity:1" fill="#7a7a7a" d="M 150.5,123.5 C 152.527,123.338 154.527,123.505 156.5,124C 156.957,124.414 157.291,124.914 157.5,125.5C 155.579,126.641 153.579,126.808 151.5,126C 150.748,125.329 150.414,124.496 150.5,123.5 Z"/></g>
<g><path style="opacity:1" fill="#868686" d="M 272.5,126.5 C 274.713,127.605 276.88,127.605 279,126.5C 279.667,127.167 280.333,127.833 281,128.5C 282.751,127.826 284.417,127.493 286,127.5C 286.974,129.878 287.641,129.544 288,126.5C 288.49,127.793 288.657,129.127 288.5,130.5C 284.286,129.341 280.119,129.341 276,130.5C 275.395,128.519 274.395,128.185 273,129.5C 272.517,128.552 272.351,127.552 272.5,126.5 Z"/></g>
<g><path style="opacity:1" fill="#6a6a6a" d="M 266.5,126.5 C 267.75,126.577 268.583,127.244 269,128.5C 269.811,127.04 270.645,126.707 271.5,127.5C 270.863,129.303 269.697,130.636 268,131.5C 267.167,130 266,128.833 264.5,128C 265.416,127.722 266.082,127.222 266.5,126.5 Z"/></g>
<g><path style="opacity:1" fill="#797979" d="M 165.5,130.5 C 170.734,130.29 176.068,130.623 181.5,131.5C 176.692,133.101 171.359,133.768 165.5,133.5C 165.5,132.5 165.5,131.5 165.5,130.5 Z"/></g>
<g><path style="opacity:1" fill="#c2c2c2" d="M 155.5,130.5 C 158.604,129.971 160.937,130.971 162.5,133.5C 160.5,134.833 158.5,134.833 156.5,133.5C 155.873,132.583 155.539,131.583 155.5,130.5 Z"/></g>
<g><path style="opacity:1" fill="#898989" d="M 283.5,133.5 C 285.429,133.231 287.095,133.731 288.5,135C 286.77,136.852 285.604,136.686 285,134.5C 284.167,135.5 283.333,136.5 282.5,137.5C 282.264,136.753 281.93,135.92 281.5,135C 282.416,134.722 283.082,134.222 283.5,133.5 Z"/></g>
<g><path style="opacity:1" fill="#7d7d7d" d="M 269.5,133.5 C 273.167,133.5 276.833,133.5 280.5,133.5C 279.342,138.012 276.842,138.678 273,135.5C 271.989,136.337 270.822,136.67 269.5,136.5C 269.5,135.5 269.5,134.5 269.5,133.5 Z"/></g>
<g><path style="opacity:1" fill="#c7c7c7" d="M 159.5,137.5 C 161.527,137.338 163.527,137.505 165.5,138C 165.957,138.414 166.291,138.914 166.5,139.5C 164.579,140.641 162.579,140.808 160.5,140C 159.748,139.329 159.414,138.496 159.5,137.5 Z"/></g>
<g><path style="opacity:1" fill="#6c6c6c" d="M 169.5,137.5 C 172.501,137.107 175.501,137.774 178.5,139.5C 175.572,140.484 172.572,140.817 169.5,140.5C 169.5,139.5 169.5,138.5 169.5,137.5 Z"/></g>
<g><path style="opacity:1" fill="#8a8a8a" d="M 312.5,139.5 C 313.5,139.5 314.5,139.5 315.5,139.5C 315.778,141.346 315.111,142.68 313.5,143.5C 312.571,142.311 312.238,140.978 312.5,139.5 Z"/></g>
<g><path style="opacity:1" fill="#8c8c8c" d="M 361.5,141.5 C 360.469,142.355 359.303,143.022 358,143.5C 352.961,142.179 348.128,141.512 343.5,141.5C 345.003,140.443 346.67,139.776 348.5,139.5C 352.019,139.724 355.185,140.724 358,142.5C 359,141.5 360,140.5 361,139.5C 361.464,140.094 361.631,140.761 361.5,141.5 Z"/></g>
<g><path style="opacity:1" fill="#757575" d="M 266.5,139.5 C 268.833,139.5 271.167,139.5 273.5,139.5C 273.5,140.5 273.5,141.5 273.5,142.5C 271.801,142.66 270.134,142.494 268.5,142C 267.244,141.583 266.577,140.75 266.5,139.5 Z"/></g>
<g><path style="opacity:1" fill="#727272" d="M 297.5,139.5 C 302.105,140.082 306.771,140.415 311.5,140.5C 306.971,142.701 302.304,143.368 297.5,142.5C 297.5,141.5 297.5,140.5 297.5,139.5 Z"/></g>
<g><path style="opacity:1" fill="#9a9a9a" d="M 317.5,139.5 C 319.482,139.995 321.482,140.495 323.5,141C 321.424,142.165 319.257,142.665 317,142.5C 316.53,141.423 316.697,140.423 317.5,139.5 Z"/></g>
<g><path style="opacity:1" fill="#a8a8a8" d="M 337.5,139.5 C 343.835,140.931 343.502,142.264 336.5,143.5C 333.497,142.915 330.497,142.248 327.5,141.5C 330.977,140.833 334.311,140.166 337.5,139.5 Z"/></g>
<g><path style="opacity:1" fill="#8f8f8f" d="M 365.5,142.5 C 363.544,144.175 362.211,143.842 361.5,141.5C 362.721,140.972 363.887,140.305 365,139.5C 365.483,140.448 365.649,141.448 365.5,142.5 Z"/></g>
<g><path style="opacity:1" fill="#939393" d="M 365.5,142.5 C 367.81,138.214 368.81,138.548 368.5,143.5C 367.209,143.737 366.209,143.404 365.5,142.5 Z"/></g>
<g><path style="opacity:1" fill="#7a7a7a" d="M 372.5,138.5 C 373.66,139.611 374.993,140.611 376.5,141.5C 374.684,143.441 372.684,144.108 370.5,143.5C 370.167,143.167 369.833,142.833 369.5,142.5C 371.288,141.717 372.288,140.384 372.5,138.5 Z"/></g>
<g><path style="opacity:1" fill="#575757" d="M 286.5,139.5 C 287.217,140.461 288.383,141.461 290,142.5C 290.283,139.258 291.117,138.924 292.5,141.5C 293.884,138.867 295.218,138.867 296.5,141.5C 295.833,142.833 294.833,143.833 293.5,144.5C 292.167,143.167 290.833,143.167 289.5,144.5C 286.194,143.913 285.194,142.247 286.5,139.5 Z"/></g>
<g><path style="opacity:1" fill="#c4c4c4" d="M 164.5,145.5 C 165.274,144.853 166.274,144.52 167.5,144.5C 171.969,145.053 172.303,146.053 168.5,147.5C 166.886,147.197 165.552,146.53 164.5,145.5 Z"/></g>
<g><path style="opacity:1" fill="#c0c0c0" d="M 168.5,150.5 C 170.527,150.338 172.527,150.505 174.5,151C 174.957,151.414 175.291,151.914 175.5,152.5C 173.579,153.641 171.579,153.808 169.5,153C 168.748,152.329 168.414,151.496 168.5,150.5 Z"/></g>
<g><path style="opacity:1" fill="#b2b2b2" d="M 334.5,150.5 C 336.312,150.771 337.978,151.438 339.5,152.5C 336.167,153.833 332.833,153.833 329.5,152.5C 331.291,151.83 332.958,151.163 334.5,150.5 Z"/></g>
<g><path style="opacity:1" fill="#767676" d="M 279.5,150.5 C 282.524,150.373 285.524,150.873 288.5,152C 283.158,153.818 278.158,153.985 273.5,152.5C 275.631,151.831 277.631,151.165 279.5,150.5 Z"/></g>
<g><path style="opacity:1" fill="#969696" d="M 301.5,150.5 C 302.151,151.091 302.818,151.757 303.5,152.5C 305.993,151.036 308.326,151.203 310.5,153C 307.713,153.107 304.713,153.274 301.5,153.5C 301.5,152.5 301.5,151.5 301.5,150.5 Z"/></g>
<g><path style="opacity:1" fill="#8b8b8b" d="M 318.5,150.5 C 321.91,150.457 325.243,150.957 328.5,152C 327.4,153.023 326.067,153.523 324.5,153.5C 321.5,152.167 318.5,152.167 315.5,153.5C 313.933,153.523 312.6,153.023 311.5,152C 313.897,152.321 316.231,151.821 318.5,150.5 Z"/></g>
<g><path style="opacity:1" fill="#6b6b6b" d="M 348.5,158.5 C 348.5,157.167 347.833,156.5 346.5,156.5C 346.5,155.167 346.5,153.833 346.5,152.5C 344.22,152.746 342.22,152.746 340.5,152.5C 343.995,149.709 347.329,149.876 350.5,153C 349.833,153.333 349.167,153.667 348.5,154C 353.719,155.725 353.719,157.225 348.5,158.5 Z"/></g>
<g><path style="opacity:1" fill="#d2d2d2" d="M 326.5,155.5 C 327.713,156.497 327.546,157.497 326,158.5C 325.53,157.423 325.697,156.423 326.5,155.5 Z"/></g>
<g><path style="opacity:1" fill="#939393" d="M 328.5,156.5 C 331.828,156.57 334.828,156.904 337.5,157.5C 334.729,158.217 332.063,158.551 329.5,158.5C 328.702,158.043 328.369,157.376 328.5,156.5 Z"/></g>
<g><path style="opacity:1" fill="#b3b3b3" d="M 346.5,156.5 C 347.833,156.5 348.5,157.167 348.5,158.5C 345.031,159.505 341.698,159.672 338.5,159C 339.211,157.745 340.044,156.579 341,155.5C 341.875,157.513 343.209,157.513 345,155.5C 345.383,156.056 345.883,156.389 346.5,156.5 Z"/></g>
<g><path style="opacity:1" fill="#bdbdbd" d="M 356.5,156.5 C 358.678,157.204 360.678,157.537 362.5,157.5C 360.235,158.647 357.902,158.814 355.5,158C 356.056,157.617 356.389,157.117 356.5,156.5 Z"/></g>
<g><path style="opacity:1" fill="#c1c1c1" d="M 363.5,156.5 C 365.337,156.639 365.67,157.306 364.5,158.5C 363.702,158.043 363.369,157.376 363.5,156.5 Z"/></g>
<g><path style="opacity:1" fill="#d0d0d0" d="M 172.5,156.5 C 174.604,156.201 176.604,156.534 178.5,157.5C 177.5,157.833 176.5,158.167 175.5,158.5C 173.97,158.36 172.97,157.693 172.5,156.5 Z"/></g>
<g><path style="opacity:1" fill="#7e7e7e" d="M 314.5,155.5 C 315.675,155.281 316.675,155.614 317.5,156.5C 314.282,158.372 310.948,158.705 307.5,157.5C 309.969,156.832 312.302,156.165 314.5,155.5 Z"/></g>
<g><path style="opacity:1" fill="#969696" d="M 318.5,155.5 C 319.75,155.577 320.583,156.244 321,157.5C 322.183,156.269 323.349,156.269 324.5,157.5C 320.855,160.635 318.855,159.969 318.5,155.5 Z"/></g>
<g><path style="opacity:1" fill="#a8a8a8" d="M 367.5,156.5 C 369.844,157.672 372.177,157.672 374.5,156.5C 375.833,157.5 375.833,158.5 374.5,159.5C 371.891,158.77 369.224,158.27 366.5,158C 367.056,157.617 367.389,157.117 367.5,156.5 Z"/></g>
<g><path style="opacity:1" fill="#b3b3b3" d="M 384.5,156.5 C 386.465,156.948 386.798,157.948 385.5,159.5C 384.614,158.675 384.281,157.675 384.5,156.5 Z"/></g>
<g><path style="opacity:1" fill="#ababab" d="M 394.5,156.5 C 410.32,156.731 426.654,157.398 443.5,158.5C 434.586,159.787 425.753,159.787 417,158.5C 414.838,160.647 412.504,160.647 410,158.5C 404.595,159.154 398.928,159.487 393,159.5C 392.167,159.167 391.333,158.833 390.5,158.5C 391.949,157.828 393.282,157.161 394.5,156.5 Z"/></g>
<g><path style="opacity:1" fill="#9f9f9f" d="M 377.5,156.5 C 379.604,156.201 381.604,156.534 383.5,157.5C 383.167,158.5 382.5,159.167 381.5,159.5C 380.28,158.289 379.113,158.289 378,159.5C 377.517,158.552 377.351,157.552 377.5,156.5 Z"/></g>
<g><path style="opacity:1" fill="#9e9e9e" d="M 445.5,156.5 C 446.75,156.577 447.583,157.244 448,158.5C 448.308,157.692 448.808,157.025 449.5,156.5C 453.469,157.674 457.469,157.674 461.5,156.5C 463.286,156.696 464.619,157.529 465.5,159C 465,159.5 464.5,160 464,160.5C 462.43,159.642 460.763,158.975 459,158.5C 454.173,159.755 449.34,159.755 444.5,158.5C 444.863,157.817 445.196,157.15 445.5,156.5 Z"/></g>
<g><path style="opacity:1" fill="#ebebeb" d="M 467.5,157.5 C 471.276,157.469 471.443,158.136 468,159.5C 466.316,159.317 466.15,158.65 467.5,157.5 Z"/></g>
<g><path style="opacity:1" fill="#979797" d="M 471.5,158.5 C 476.233,158.012 481.066,157.678 486,157.5C 489.207,157.741 492.374,158.241 495.5,159C 493.231,159.758 491.064,159.591 489,158.5C 488.692,159.308 488.192,159.975 487.5,160.5C 484.833,160.5 482.167,160.5 479.5,160.5C 476.803,159.831 474.137,159.164 471.5,158.5 Z"/></g>
<g><path style="opacity:1" fill="#989898" d="M 176.5,162.5 C 178.604,162.201 180.604,162.534 182.5,163.5C 181.5,163.833 180.5,164.167 179.5,164.5C 177.97,164.36 176.97,163.693 176.5,162.5 Z"/></g>
<g><path style="opacity:1" fill="#454545" d="M 305.5,169.5 C 302.833,170.5 302.833,171.5 305.5,172.5C 306.209,173.404 307.209,173.737 308.5,173.5C 308.64,175.124 307.973,176.29 306.5,177C 308.256,177.202 309.922,177.702 311.5,178.5C 311.167,179.5 310.5,180.167 309.5,180.5C 306.966,180.434 304.466,180.434 302,180.5C 300.175,179.897 298.341,179.23 296.5,178.5C 298.353,177.24 300.186,177.24 302,178.5C 301.848,176.924 301.015,175.591 299.5,174.5C 300.025,173.808 300.692,173.308 301.5,173C 300.572,172.612 299.905,171.945 299.5,171C 300.384,169.902 301.384,169.402 302.5,169.5C 300.433,168.866 298.6,167.866 297,166.5C 295.126,168.776 293.459,168.443 292,165.5C 292.053,167.936 291.887,170.269 291.5,172.5C 290.692,170.577 290.192,168.577 290,166.5C 288.817,167.731 287.651,167.731 286.5,166.5C 287.246,165.264 287.579,163.93 287.5,162.5C 285.712,162.215 284.045,162.548 282.5,163.5C 282.938,164.506 283.604,164.506 284.5,163.5C 285.833,165.167 285.833,166.833 284.5,168.5C 283.808,167.975 283.308,167.308 283,166.5C 281.111,167.097 279.278,167.431 277.5,167.5C 277.167,167.167 276.833,166.833 276.5,166.5C 277.689,165.571 279.022,165.238 280.5,165.5C 280.083,162.921 280.75,160.754 282.5,159C 273.175,157.826 273.175,156.326 282.5,154.5C 283.863,155.198 285.029,155.198 286,154.5C 287.309,156.891 288.309,156.891 289,154.5C 289.49,155.793 289.657,157.127 289.5,158.5C 288.178,158.67 287.011,158.337 286,157.5C 285.626,158.416 285.126,159.25 284.5,160C 286.509,159.406 288.509,159.573 290.5,160.5C 291.696,160.154 291.696,159.654 290.5,159C 291.7,157.969 293.034,157.135 294.5,156.5C 296.872,157.363 296.872,158.529 294.5,160C 295.416,160.374 296.25,160.874 297,161.5C 298.236,159.693 298.57,157.693 298,155.5C 298.308,156.308 298.808,156.975 299.5,157.5C 301.839,156.276 304.172,156.276 306.5,157.5C 303.33,160.056 303.164,163.056 306,166.5C 309.073,165.383 312.24,165.216 315.5,166C 311.996,166.986 308.663,168.153 305.5,169.5 Z"/></g>
<g><path style="opacity:1" fill="#b9b9b9" d="M 320.5,165.5 C 323.531,165.291 326.531,165.791 329.5,167C 327.645,167.422 325.811,167.922 324,168.5C 322.05,168.293 320.884,167.293 320.5,165.5 Z"/></g>
<g><path style="opacity:1" fill="#aeaeae" d="M 357.5,165.5 C 363.292,166.229 363.626,167.229 358.5,168.5C 354.93,168.245 354.597,167.245 357.5,165.5 Z"/></g>
<g><path style="opacity:1" fill="#a6a6a6" d="M 376.5,165.5 C 382.996,167.029 382.996,168.029 376.5,168.5C 376.5,167.5 376.5,166.5 376.5,165.5 Z"/></g>
<g><path style="opacity:1" fill="#aaaaaa" d="M 465.5,167.5 C 467.035,166.212 468.701,166.212 470.5,167.5C 468.905,168.434 467.239,168.434 465.5,167.5 Z"/></g>
<g><path style="opacity:1" fill="#8c8c8c" d="M 340.5,165.5 C 344.331,165.6 348.331,165.767 352.5,166C 347.434,168.59 342.1,169.09 336.5,167.5C 337.949,166.828 339.282,166.161 340.5,165.5 Z"/></g>
<g><path style="opacity:1" fill="#a7a7a7" d="M 363.5,165.5 C 366.127,166.105 368.793,166.605 371.5,167C 370,167.5 368.5,168 367,168.5C 365.05,168.293 363.884,167.293 363.5,165.5 Z"/></g>
<g><path style="opacity:1" fill="#cdcdcd" d="M 372.5,166.5 C 374.337,166.639 374.67,167.306 373.5,168.5C 372.702,168.043 372.369,167.376 372.5,166.5 Z"/></g>
<g><path style="opacity:1" fill="#b4b4b4" d="M 442.5,167.5 C 433.863,168.831 425.197,168.831 416.5,167.5C 414.833,168.167 413.167,168.833 411.5,169.5C 403.186,167.988 394.853,167.654 386.5,168.5C 386.281,167.325 386.614,166.325 387.5,165.5C 406.07,166.11 424.404,166.777 442.5,167.5 Z"/></g>
<g><path style="opacity:1" fill="#c4c4c4" d="M 442.5,167.5 C 445.289,166.782 448.289,166.782 451.5,167.5C 448.355,168.803 445.355,168.803 442.5,167.5 Z"/></g>
<g><path style="opacity:1" fill="#c8c8c8" d="M 452.5,167.5 C 453.274,166.853 454.274,166.52 455.5,166.5C 458.182,166.077 459.348,167.077 459,169.5C 456.913,168.603 454.746,167.936 452.5,167.5 Z"/></g>
<g><path style="opacity:1" fill="#818181" d="M 283.5,169.5 C 285.458,169.908 287.458,170.241 289.5,170.5C 288.5,170.833 287.5,171.167 286.5,171.5C 284.97,171.36 283.97,170.693 283.5,169.5 Z"/></g>
<g><path style="opacity:1" fill="#989898" d="M 354.5,169.5 C 356.696,169.565 358.696,170.232 360.5,171.5C 358.053,171.558 355.553,171.892 353,172.5C 352.5,172.167 352,171.833 351.5,171.5C 352.602,170.824 353.602,170.158 354.5,169.5 Z"/></g>
<g><path style="opacity:1" fill="#757575" d="M 305.5,169.5 C 311.525,170.301 317.525,170.635 323.5,170.5C 322.833,170.5 322.5,170.833 322.5,171.5C 316.618,172.045 310.952,172.379 305.5,172.5C 302.833,171.5 302.833,170.5 305.5,169.5 Z"/></g>
<g><path style="opacity:1" fill="#a3a3a3" d="M 322.5,171.5 C 322.5,170.833 322.833,170.5 323.5,170.5C 332.688,169.64 341.688,169.306 350.5,169.5C 350.5,170.5 350.5,171.5 350.5,172.5C 340.804,172.301 331.47,171.968 322.5,171.5 Z"/></g>
<g><path style="opacity:1" fill="#9f9f9f" d="M 190.5,172.5 C 194.019,171.192 197.685,171.192 201.5,172.5C 197.79,173.758 194.123,173.758 190.5,172.5 Z"/></g>
<g><path style="opacity:1" fill="#969696" d="M 202.5,171.5 C 205.898,171.18 209.232,171.513 212.5,172.5C 210.833,172.833 209.167,173.167 207.5,173.5C 205.36,173.444 203.694,172.777 202.5,171.5 Z"/></g>
<g><path style="opacity:1" fill="#595959" d="M 293.5,169.5 C 295.167,169.5 296.833,169.5 298.5,169.5C 298.808,171.924 298.474,174.257 297.5,176.5C 295.146,175.94 292.813,175.273 290.5,174.5C 292.695,173.231 294.861,173.231 297,174.5C 297.617,171.824 296.784,171.157 294.5,172.5C 293.614,171.675 293.281,170.675 293.5,169.5 Z"/></g>
<g><path style="opacity:1" fill="#a6a6a6" d="M 328.5,173.5 C 347.068,175.146 347.068,176.146 328.5,176.5C 328.5,175.5 328.5,174.5 328.5,173.5 Z"/></g>
<g><path style="opacity:1" fill="#898989" d="M 343.5,173.5 C 345.696,173.565 347.696,174.232 349.5,175.5C 349,175.833 348.5,176.167 348,176.5C 345.815,176.302 344.315,175.302 343.5,173.5 Z"/></g>
<g><path style="opacity:1" fill="#666666" d="M 324.5,173.5 C 325.675,173.281 326.675,173.614 327.5,174.5C 324.696,175.105 322.029,175.938 319.5,177C 323.5,177.833 327.5,178.667 331.5,179.5C 325.493,180.166 319.326,180.499 313,180.5C 312.312,179.668 312.479,179.002 313.5,178.5C 314.795,177.902 316.128,177.402 317.5,177C 316.692,176.692 316.025,176.192 315.5,175.5C 318.642,174.833 321.642,174.166 324.5,173.5 Z"/></g>
<g><path style="opacity:1" fill="#787878" d="M 320.5,181.5 C 325.214,181.173 329.88,181.507 334.5,182.5C 332.167,182.833 329.833,183.167 327.5,183.5C 324.731,183.471 322.397,182.805 320.5,181.5 Z"/></g>
<g><path style="opacity:1" fill="#747474" d="M 302.5,181.5 C 308.206,181.171 313.872,181.505 319.5,182.5C 316.667,182.833 313.833,183.167 311,183.5C 307.748,183.481 304.915,182.814 302.5,181.5 Z"/></g>
<g><path style="opacity:1" fill="#bfbfbf" d="M 365.5,181.5 C 369.119,182.18 372.786,182.68 376.5,183C 372.911,183.207 369.411,183.707 366,184.5C 365.517,183.552 365.351,182.552 365.5,181.5 Z"/></g>
<g><path style="opacity:1" fill="#a2a2a2" d="M 377.5,181.5 C 385.862,181.678 394.195,182.012 402.5,182.5C 400.608,183.473 398.608,184.14 396.5,184.5C 390.006,183.79 383.673,183.79 377.5,184.5C 377.5,183.5 377.5,182.5 377.5,181.5 Z"/></g>
<g><path style="opacity:1" fill="#b5b5b5" d="M 356.5,183.5 C 357.946,182.387 359.613,182.22 361.5,183C 360.038,184.628 358.372,184.795 356.5,183.5 Z"/></g>
<g><path style="opacity:1" fill="#7b7b7b" d="M 428.5,184.5 C 431.203,184.952 433.87,185.619 436.5,186.5C 430.265,188.948 423.932,189.114 417.5,187C 421.465,186.892 425.132,186.059 428.5,184.5 Z"/></g>
<g><path style="opacity:1" fill="#a3a3a3" d="M 366.5,185.5 C 369.247,185.187 371.914,185.52 374.5,186.5C 373.167,186.833 371.833,187.167 370.5,187.5C 368.667,187.415 367.334,186.748 366.5,185.5 Z"/></g>
<g><path style="opacity:1" fill="#9f9f9f" d="M 383.5,185.5 C 393.188,185.543 402.855,186.043 412.5,187C 407.667,187.167 402.833,187.333 398,187.5C 392.784,187.494 387.951,186.827 383.5,185.5 Z"/></g>
<g><path style="opacity:1" fill="#818181" d="M 437.5,185.5 C 447.085,185.898 456.585,185.898 466,185.5C 467.067,186.191 468.234,186.691 469.5,187C 466.567,187.893 463.567,188.393 460.5,188.5C 452.434,188.351 444.767,187.351 437.5,185.5 Z"/></g>
<g><path style="opacity:1" fill="#555555" d="M 326.5,188.5 C 325.662,188.842 325.328,189.508 325.5,190.5C 322.813,190.664 320.146,190.497 317.5,190C 318.711,188.887 318.711,187.72 317.5,186.5C 320.71,184.387 324.044,184.387 327.5,186.5C 327.137,187.183 326.804,187.85 326.5,188.5 Z"/></g>
<g><path style="opacity:1" fill="#8c8c8c" d="M 328.5,185.5 C 331.487,185.652 334.154,185.985 336.5,186.5C 335.167,186.833 333.833,187.167 332.5,187.5C 330.667,187.415 329.334,186.748 328.5,185.5 Z"/></g>
<g><path style="opacity:1" fill="#9d9d9d" d="M 375.5,185.5 C 377.989,185.298 380.323,185.798 382.5,187C 381.333,187.167 380.167,187.333 379,187.5C 377.319,187.392 376.152,186.725 375.5,185.5 Z"/></g>
<g><path style="opacity:1" fill="#868686" d="M 489.5,185.5 C 498.174,186.301 506.841,186.634 515.5,186.5C 504.181,187.666 492.848,187.832 481.5,187C 484.365,186.817 487.031,186.317 489.5,185.5 Z"/></g>
<g><path style="opacity:1" fill="#575757" d="M 529.5,184.5 C 530.75,184.577 531.583,185.244 532,186.5C 534.461,185.782 536.961,185.115 539.5,184.5C 542.109,185.23 544.776,185.73 547.5,186C 542.507,186.965 537.507,187.798 532.5,188.5C 530.775,187.985 529.108,187.318 527.5,186.5C 528.243,185.818 528.909,185.151 529.5,184.5 Z"/></g>
<g><path style="opacity:1" fill="#767676" d="M 338.5,183.5 C 340.966,182.366 343.633,182.199 346.5,183C 345.483,184.049 345.316,185.216 346,186.5C 351.446,185.194 356.946,185.194 362.5,186.5C 358.541,187.327 354.541,187.827 350.5,188C 349.747,189.487 348.914,189.654 348,188.5C 346.507,190.56 344.674,190.893 342.5,189.5C 343.729,188.719 345.062,188.219 346.5,188C 343.447,187.821 340.447,187.321 337.5,186.5C 339.576,186.242 341.909,185.742 344.5,185C 342.482,184.495 340.482,183.995 338.5,183.5 Z"/></g>
<g><path style="opacity:1" fill="#8b8b8b" d="M 305.5,188.5 C 308.85,188.335 312.183,188.502 315.5,189C 313.2,189.658 310.867,190.158 308.5,190.5C 306.97,190.36 305.97,189.693 305.5,188.5 Z"/></g>
<g><path style="opacity:1" fill="#a8a8a8" d="M 326.5,188.5 C 328.604,188.201 330.604,188.534 332.5,189.5C 330.257,190.474 327.924,190.808 325.5,190.5C 325.328,189.508 325.662,188.842 326.5,188.5 Z"/></g>
<g><path style="opacity:1" fill="#464646" d="M 323.5,209.5 C 324.766,210.09 326.099,210.59 327.5,211C 326.833,211.333 326.167,211.667 325.5,212C 329.089,212.207 332.589,212.707 336,213.5C 337.441,212.74 338.941,212.074 340.5,211.5C 347.394,213.821 354.394,214.154 361.5,212.5C 361.421,213.93 361.754,215.264 362.5,216.5C 378.226,218.294 377.893,219.294 361.5,219.5C 360.833,215.5 360.167,215.5 359.5,219.5C 352.924,218.924 346.257,218.924 339.5,219.5C 335.753,219.294 332.253,218.294 329,216.5C 327.238,216.944 327.405,217.444 329.5,218C 324.48,220.353 319.813,219.853 315.5,216.5C 316.025,215.808 316.692,215.308 317.5,215C 314.139,214.663 310.806,214.163 307.5,213.5C 303.535,214.53 299.535,214.697 295.5,214C 298.638,212.756 301.972,212.089 305.5,212C 303.405,211.444 303.238,210.944 305,210.5C 310.33,212.475 315.83,212.975 321.5,212C 320.5,211.667 319.5,211.333 318.5,211C 320.382,210.802 322.048,210.302 323.5,209.5 Z"/></g>
<g><path style="opacity:1" fill="#686868" d="M 395.5,212.5 C 399.048,212.095 402.381,212.595 405.5,214C 404.062,214.219 402.729,214.719 401.5,215.5C 403.743,216.474 406.076,216.808 408.5,216.5C 408.719,217.675 408.386,218.675 407.5,219.5C 404.615,218.981 401.615,218.981 398.5,219.5C 396.5,219.167 394.5,218.833 392.5,218.5C 395.212,217.772 397.879,216.939 400.5,216C 392.876,214.904 385.209,214.238 377.5,214C 383.681,213.828 389.681,213.328 395.5,212.5 Z"/></g>
<g><path style="opacity:1" fill="#858585" d="M 432.5,216.5 C 442.505,216.824 452.505,217.324 462.5,218C 457.5,218.167 452.5,218.333 447.5,218.5C 442.119,218.494 437.119,217.828 432.5,216.5 Z"/></g>
<g><path style="opacity:1" fill="#6f6f6f" d="M 470.5,215.5 C 474.499,216.035 478.499,216.701 482.5,217.5C 476.5,218.833 470.5,218.833 464.5,217.5C 466.631,216.831 468.631,216.165 470.5,215.5 Z"/></g>
<g><path style="opacity:1" fill="#828282" d="M 375.5,218.5 C 379.683,217.189 384.016,217.189 388.5,218.5C 384.152,219.71 379.819,219.71 375.5,218.5 Z"/></g>
<g><path style="opacity:1" fill="#333333" d="M 383.5,255.5 C 370.331,256.441 356.998,257.274 343.5,258C 392.52,258.395 441.52,258.561 490.5,258.5C 488.37,261.037 488.036,263.871 489.5,267C 489.325,268.658 488.658,269.991 487.5,271C 482.833,271.667 478.167,271.667 473.5,271C 473,270.5 472.5,270 472,269.5C 466.803,271.42 461.303,272.087 455.5,271.5C 455.335,268.482 455.502,265.482 456,262.5C 456.5,262 457,261.5 457.5,261C 455.167,260.333 452.833,260.333 450.5,261C 452.968,264.033 453.968,267.533 453.5,271.5C 447.779,272.105 442.112,272.105 436.5,271.5C 436.216,268.223 436.549,265.057 437.5,262C 436.167,261.333 434.833,261.333 433.5,262C 434.833,265.333 434.833,268.667 433.5,272C 428.129,272.676 422.796,272.509 417.5,271.5C 417.167,260.833 416.833,260.833 416.5,271.5C 410.879,272.354 405.212,272.687 399.5,272.5C 399.823,268.774 399.489,265.107 398.5,261.5C 397.914,261.709 397.414,262.043 397,262.5C 396.502,265.817 396.335,269.15 396.5,272.5C 391.167,272.5 385.833,272.5 380.5,272.5C 380.665,269.482 380.498,266.482 380,263.5C 379.333,264.167 378.667,264.833 378,265.5C 377.73,268.224 377.23,270.891 376.5,273.5C 381.833,274.167 387.167,274.833 392.5,275.5C 391.243,278.823 391.243,282.156 392.5,285.5C 392.634,282.506 393.301,279.506 394.5,276.5C 395.046,282.067 394.379,287.4 392.5,292.5C 394.078,293.298 395.744,293.798 397.5,294C 393.514,294.499 389.514,294.666 385.5,294.5C 385.428,299.406 385.095,304.072 384.5,308.5C 385.145,309.646 385.978,310.646 387,311.5C 391.667,310.167 396.333,310.167 401,311.5C 401.888,308.922 402.388,306.255 402.5,303.5C 403.167,305.833 403.833,308.167 404.5,310.5C 405.842,309.098 406.676,309.431 407,311.5C 410,310.167 413,310.167 416,311.5C 416.308,310.692 416.808,310.025 417.5,309.5C 419.133,310.744 420.133,310.244 420.5,308C 419.67,306.535 419.504,305.035 420,303.5C 420.667,306.167 421.333,306.167 422,303.5C 422.495,305.473 422.662,307.473 422.5,309.5C 428.013,309.337 433.346,309.17 438.5,309C 438.833,308.667 439.167,308.333 439.5,308C 437.715,306.407 437.548,304.907 439,303.5C 439.333,300.833 439.667,298.167 440,295.5C 440.898,300.574 441.565,305.574 442,310.5C 446.45,309.2 450.95,309.2 455.5,310.5C 452.5,311.167 449.5,311.833 446.5,312.5C 446.379,317.474 446.046,322.474 445.5,327.5C 444.752,324.503 444.085,321.503 443.5,318.5C 444.103,316.548 443.77,314.548 442.5,312.5C 437.544,311.506 432.544,311.173 427.5,311.5C 426.808,332.689 425.642,332.689 424,311.5C 418.928,312.471 413.762,312.805 408.5,312.5C 408.827,317.544 408.494,322.544 407.5,327.5C 406.903,322.089 406.069,316.755 405,311.5C 404.311,312.357 403.478,313.023 402.5,313.5C 398.892,312.407 395.225,312.24 391.5,313C 390.895,317.196 390.062,321.363 389,325.5C 387.36,321.874 387.194,318.207 388.5,314.5C 387.895,312.519 386.895,312.185 385.5,313.5C 382.223,312.746 378.89,312.246 375.5,312C 378.146,311.503 380.813,311.336 383.5,311.5C 383.5,305.833 383.5,300.167 383.5,294.5C 377.907,294.193 372.407,294.527 367,295.5C 366.501,300.823 366.334,306.156 366.5,311.5C 369.187,311.336 371.854,311.503 374.5,312C 373.667,312.833 372.833,313.667 372,314.5C 371.828,318.871 371.328,323.204 370.5,327.5C 369.649,322.697 369.316,318.03 369.5,313.5C 363.341,312.72 357.341,312.72 351.5,313.5C 351.662,315.527 351.495,317.527 351,319.5C 350.814,317.1 350.314,314.766 349.5,312.5C 348.152,314.461 346.819,314.628 345.5,313C 340.764,311.782 336.597,312.616 333,315.5C 331.981,314.313 330.814,313.313 329.5,312.5C 326.081,312.329 322.581,312.663 319,313.5C 318.5,313 318,312.5 317.5,312C 326.827,311.5 336.161,311.334 345.5,311.5C 345.5,305.833 345.5,300.167 345.5,294.5C 333.356,294.817 321.19,295.15 309,295.5C 306.804,294.91 304.638,294.243 302.5,293.5C 297.318,294.121 291.985,294.287 286.5,294C 290.702,292.839 295.035,292.005 299.5,291.5C 308.842,292.081 318.176,292.414 327.5,292.5C 330.613,292.438 333.446,291.771 336,290.5C 338.218,291.472 340.551,292.139 343,292.5C 346.837,292.584 350.67,292.417 354.5,292C 354.527,287.136 354.527,282.303 354.5,277.5C 353.965,275.729 353.131,275.396 352,276.5C 348.2,275.801 344.367,275.135 340.5,274.5C 339.5,275 338.5,275.5 337.5,276C 338.795,279.786 338.795,283.62 337.5,287.5C 336.803,283.623 336.136,279.79 335.5,276C 330.177,275.501 324.844,275.334 319.5,275.5C 319.824,279.555 319.491,283.555 318.5,287.5C 317.792,284.634 317.125,281.8 316.5,279C 317.815,277.605 317.481,276.605 315.5,276C 310.833,275.333 306.167,275.333 301.5,276C 300.888,277.303 300.554,278.47 300.5,279.5C 299.852,277.851 298.852,276.518 297.5,275.5C 291.928,275.107 286.261,275.107 280.5,275.5C 280.167,279.5 279.833,279.5 279.5,275.5C 274.167,275.5 268.833,275.5 263.5,275.5C 262.502,291.487 261.502,291.487 260.5,275.5C 259.554,275.013 258.554,274.68 257.5,274.5C 252.746,275.007 248.079,275.84 243.5,277C 244.959,281.269 244.792,285.435 243,289.5C 242.5,289 242,288.5 241.5,288C 242.307,284.281 242.64,280.614 242.5,277C 238.167,276 233.833,275 229.5,274C 233.635,272.569 237.968,272.069 242.5,272.5C 242.5,269.5 242.5,266.5 242.5,263.5C 243.5,263.5 244.5,263.5 245.5,263.5C 245.216,266.777 245.549,269.943 246.5,273C 252.193,273.405 257.859,273.072 263.5,272C 262.217,269.205 262.217,266.372 263.5,263.5C 263.975,266.926 264.975,270.092 266.5,273C 271.2,273.052 275.867,272.552 280.5,271.5C 286.714,273.35 293.047,273.85 299.5,273C 300,272.5 300.5,272 301,271.5C 301.333,268.833 301.667,266.167 302,263.5C 302.218,266.426 302.718,269.26 303.5,272C 307,272.5 310.5,273 314,273.5C 316.261,273.561 318.261,272.894 320,271.5C 320.777,268.571 320.61,265.737 319.5,263C 332.822,262.112 346.155,261.445 359.5,261C 331.506,260.498 303.506,259.998 275.5,259.5C 263.5,259.833 251.5,260.167 239.5,260.5C 242.107,261.318 244.774,261.818 247.5,262C 241.78,262.788 236.114,262.621 230.5,261.5C 229.476,262.853 228.143,263.52 226.5,263.5C 226.336,266.187 226.503,268.854 227,271.5C 228.982,273.246 228.815,274.579 226.5,275.5C 225.5,280.505 225,285.505 225,290.5C 227,291.167 229,291.833 231,292.5C 234,291.167 237,291.167 240,292.5C 241.612,289.921 243.112,289.921 244.5,292.5C 237.809,293.202 231.143,293.868 224.5,294.5C 223.167,299.833 223.167,305.167 224.5,310.5C 226.776,311.213 229.109,311.713 231.5,312C 228.571,312.777 225.737,312.61 223,311.5C 222.829,306.136 222.329,300.802 221.5,295.5C 220.166,308.838 218.833,322.172 217.5,335.5C 215.219,335.077 213.552,335.744 212.5,337.5C 209.833,337.5 207.167,337.5 204.5,337.5C 203.708,316.836 204.041,296.169 205.5,275.5C 205.449,273.9 205.116,272.4 204.5,271C 202.08,271.988 199.747,271.655 197.5,270C 199.411,268.504 201.411,267.171 203.5,266C 202.906,265.536 202.239,265.369 201.5,265.5C 200.132,266.306 198.799,267.306 197.5,268.5C 197.245,266.657 197.078,264.657 197,262.5C 195.732,262.616 194.398,262.949 193,263.5C 192.833,263.167 192.667,262.833 192.5,262.5C 194.865,261.915 196.865,260.748 198.5,259C 196.709,258.585 195.376,257.585 194.5,256C 195.744,255.544 196.577,256.044 197,257.5C 197.725,255.842 198.892,255.342 200.5,256C 198.314,256.604 198.148,257.77 200,259.5C 201.565,256.106 203.565,255.772 206,258.5C 205.316,250.804 208.483,245.637 215.5,243C 224.948,242.591 234.282,242.425 243.5,242.5C 244.244,243.991 244.91,245.491 245.5,247C 244.556,249.719 244.223,252.552 244.5,255.5C 290.827,256.525 337.16,256.525 383.5,255.5 Z"/></g>
<g><path style="opacity:1" fill="#3d3d3d" d="M 394.5,276.5 C 393.301,279.506 392.634,282.506 392.5,285.5C 391.243,282.156 391.243,278.823 392.5,275.5C 387.167,274.833 381.833,274.167 376.5,273.5C 377.23,270.891 377.73,268.224 378,265.5C 378.667,264.833 379.333,264.167 380,263.5C 380.498,266.482 380.665,269.482 380.5,272.5C 385.833,272.5 391.167,272.5 396.5,272.5C 396.335,269.15 396.502,265.817 397,262.5C 397.414,262.043 397.914,261.709 398.5,261.5C 399.489,265.107 399.823,268.774 399.5,272.5C 405.212,272.687 410.879,272.354 416.5,271.5C 416.833,260.833 417.167,260.833 417.5,271.5C 422.796,272.509 428.129,272.676 433.5,272C 434.833,268.667 434.833,265.333 433.5,262C 434.833,261.333 436.167,261.333 437.5,262C 436.549,265.057 436.216,268.223 436.5,271.5C 442.112,272.105 447.779,272.105 453.5,271.5C 453.968,267.533 452.968,264.033 450.5,261C 452.833,260.333 455.167,260.333 457.5,261C 457,261.5 456.5,262 456,262.5C 455.502,265.482 455.335,268.482 455.5,271.5C 461.303,272.087 466.803,271.42 472,269.5C 472.5,270 473,270.5 473.5,271C 478.167,271.667 482.833,271.667 487.5,271C 488.658,269.991 489.325,268.658 489.5,267C 488.036,263.871 488.37,261.037 490.5,258.5C 441.52,258.561 392.52,258.395 343.5,258C 356.998,257.274 370.331,256.441 383.5,255.5C 412.5,255.5 441.5,255.5 470.5,255.5C 470.203,251.233 470.536,247.066 471.5,243C 480.167,242.333 488.833,242.333 497.5,243C 499.218,243.346 500.885,243.846 502.5,244.5C 506.024,249.932 507.858,255.932 508,262.5C 508.329,276.179 508.829,289.846 509.5,303.5C 508.5,303.5 507.5,303.5 506.5,303.5C 506.485,292.915 505.818,292.915 504.5,303.5C 502.485,309.389 500.151,309.722 497.5,304.5C 498.416,301.368 497.916,298.368 496,295.5C 495.83,297.715 495.163,299.715 494,301.5C 493.667,298.833 493.333,296.167 493,293.5C 492.167,292.667 491.333,291.833 490.5,291C 491.357,290.311 492.023,289.478 492.5,288.5C 491.825,283.768 490.825,279.102 489.5,274.5C 475.471,273.774 461.471,273.774 447.5,274.5C 447.167,278.5 446.833,278.5 446.5,274.5C 441.167,274.5 435.833,274.5 430.5,274.5C 430.49,291.772 429.824,291.772 428.5,274.5C 419.609,274.945 410.775,274.945 402,274.5C 399.071,274.525 396.571,275.191 394.5,276.5 Z"/></g>
<g><path style="opacity:1" fill="#eeeeee" d="M 201.5,265.5 C 200.5,265.5 199.5,265.5 198.5,265.5C 198.5,264.5 198.5,263.5 198.5,262.5C 199.5,262.5 200.5,262.5 201.5,262.5C 201.5,263.5 201.5,264.5 201.5,265.5 Z"/></g>
</svg>
